<svg width="155" height="40" viewBox="0 0 155 40" fill="none" xmlns="http://www.w3.org/2000/svg">
<path d="M137.696 5.28463C133.949 5.45971 130.379 7.53463 128.365 11.0549C126.477 14.3554 126.381 18.2035 127.771 21.4518C126.666 18.7101 126.898 15.6666 128.251 13.1782C129.064 11.6807 130.294 10.3918 131.869 9.47543C133.701 8.41004 135.73 8.08222 137.688 8.23496C138.49 8.29828 139.152 7.5756 139.152 6.75979C139.152 5.94398 138.505 5.24738 137.7 5.28463H137.696Z" fill="#FDF5EA"/>
<path d="M139.792 6.72363C142.719 7.13259 145.226 8.8697 146.699 11.3084C147.584 12.7792 148.086 14.5088 148.086 16.3547C148.086 18.5045 147.35 20.4517 146.234 22.0988C145.776 22.7742 146.07 23.7196 146.773 24.1286C147.476 24.5375 148.395 24.3199 148.767 23.5921C150.5 20.2116 150.511 16.017 148.484 12.4753C146.584 9.15485 143.299 7.14009 139.792 6.72363Z" fill="#FDF5EA"/>
<path d="M128.617 21.7766C128.373 21.7878 128.125 21.859 127.903 21.9865C127.193 22.395 126.915 23.3096 127.359 23.9955C129.413 27.2002 133.048 29.2955 137.142 29.2955C140.98 29.2955 144.382 27.4439 146.515 24.5877C144.683 26.9379 141.907 28.261 139.046 28.3247C137.326 28.3622 135.576 27.9311 133.976 27.0091C132.113 25.9371 130.795 24.3179 129.931 22.5187C129.687 22.0127 129.154 21.7503 128.613 21.7728L128.617 21.7766Z" fill="#FDF5EA"/>
<path d="M138.795 0.00374302C132.984 0.00374302 127.823 2.81468 124.584 7.14526C127.555 3.27506 132.077 1.09294 136.742 0.988134C139.534 0.924504 142.37 1.60946 144.963 3.11412C147.983 4.86207 150.14 7.4896 151.509 10.4315C151.867 11.1988 152.864 11.4159 153.595 10.993C154.327 10.57 154.577 9.6343 154.155 8.90069C151.084 3.58198 145.363 0 138.795 0V0.00374302Z" fill="#FDF5EA"/>
<path d="M153.56 10.8857C155.41 15.4057 155.038 20.4276 152.805 24.5356C151.469 26.9922 149.463 29.1081 146.876 30.6097C143.865 32.3586 140.523 32.924 137.304 32.6432C136.467 32.5683 135.79 33.3285 135.79 34.1748C135.79 35.0211 136.471 35.699 137.312 35.699C143.423 35.6915 149.362 32.5121 152.637 26.805C155.536 21.7532 155.674 15.8701 153.56 10.8895V10.8857Z" fill="#FDF5EA"/>
<path d="M135.79 34.0983C130.949 33.4535 126.788 30.6321 124.36 26.6516C122.905 24.2701 122.078 21.4673 122.078 18.4745C122.078 14.9935 123.279 11.8217 125.139 9.17181C125.621 8.48231 125.303 7.50955 124.57 7.08839C123.837 6.66724 122.909 6.91695 122.49 7.64745C119.426 12.951 119.19 19.6895 122.482 25.3695C125.397 30.3973 130.421 33.4535 135.79 34.0983Z" fill="#FDF5EA"/>
<path d="M6.46288 12.3753C6.29708 12.3753 6.14843 12.341 6.01694 12.2724C5.88544 12.2095 5.76538 12.1209 5.65676 12.0066C5.55385 11.8922 5.45952 11.7579 5.37376 11.6035C5.27085 11.3862 5.17652 11.1347 5.09076 10.8488C5.005 10.563 4.93068 10.2657 4.86779 9.95696C4.81062 9.64252 4.76774 9.33093 4.73916 9.02221C4.71057 8.71348 4.69628 8.42762 4.69628 8.16463C4.69628 7.23274 4.87065 6.44377 5.2194 5.79774C5.56814 5.1517 6.07125 4.66002 6.72872 4.32271C7.3862 3.9854 8.17516 3.81674 9.09562 3.81674C9.48439 3.81674 9.856 3.84533 10.2105 3.9025C10.5706 3.95967 10.8908 4.04543 11.1709 4.15977C11.4511 4.2684 11.6712 4.40561 11.8313 4.57141C11.9971 4.73149 12.08 4.9173 12.08 5.12883C12.08 5.30034 12.0428 5.44041 11.9685 5.54904C11.8942 5.65195 11.797 5.72627 11.6769 5.77201C11.5626 5.81775 11.4425 5.84061 11.3167 5.84061C11.0537 5.84061 10.765 5.79774 10.4506 5.71198C10.1419 5.6205 9.7388 5.57477 9.24141 5.57477C8.49246 5.57477 7.92932 5.80631 7.55199 6.2694C7.18038 6.73249 6.99457 7.36138 6.99457 8.15606C6.99457 8.44192 7.00886 8.7192 7.03745 8.9879C7.06604 9.25089 7.10034 9.50531 7.14036 9.75114C7.18038 9.99126 7.2204 10.2142 7.26042 10.42C7.30044 10.6259 7.33188 10.8088 7.35475 10.9689C7.38334 11.129 7.39763 11.2605 7.39763 11.3634C7.39763 11.7178 7.31759 11.9751 7.15751 12.1352C7.00315 12.2953 6.7716 12.3753 6.46288 12.3753ZM17.6843 12.7441C16.7239 12.7441 15.892 12.5983 15.1888 12.3067C14.4856 12.0151 13.9425 11.5663 13.5594 10.9603C13.1764 10.3486 12.9848 9.57105 12.9848 8.62772C12.9848 7.84447 13.1135 7.16128 13.3708 6.57813C13.6337 5.98926 13.9939 5.49759 14.4513 5.1031C14.9087 4.70862 15.4375 4.41419 16.0378 4.2198C16.6381 4.0197 17.2784 3.91965 17.9588 3.91965C18.4219 3.91965 18.8592 3.96825 19.2708 4.06544C19.6882 4.16263 20.057 4.31414 20.3771 4.51995C20.703 4.72005 20.9574 4.97733 21.1404 5.29177C21.3233 5.60621 21.4148 5.98068 21.4148 6.41519C21.4148 6.87828 21.3176 7.25561 21.1232 7.54718C20.9288 7.83304 20.663 8.05887 20.3257 8.22466C19.9883 8.38474 19.6053 8.5048 19.1765 8.58484C18.7534 8.65917 18.3104 8.71634 17.8473 8.75636C17.6129 8.79638 17.3356 8.83068 17.0154 8.85927C16.6953 8.88214 16.3837 8.90215 16.0807 8.9193C15.7834 8.93073 15.5518 8.93645 15.386 8.93645C15.2145 8.93645 15.0973 8.95932 15.0344 9.00505C14.9716 9.05079 14.9401 9.13369 14.9401 9.25375C14.9401 9.39668 14.9801 9.56534 15.0602 9.75972C15.1402 9.94838 15.2546 10.1342 15.4032 10.3171C15.6776 10.6545 15.9949 10.8803 16.3551 10.9946C16.721 11.1032 17.1698 11.1576 17.7015 11.1576C18.1646 11.1576 18.5876 11.1032 18.9707 10.9946C19.3537 10.8803 19.6968 10.7688 19.9998 10.6602C20.3085 10.5458 20.5858 10.4887 20.8316 10.4887C21.0546 10.4887 21.229 10.5315 21.3547 10.6173C21.4862 10.6973 21.552 10.8574 21.552 11.0975C21.552 11.3148 21.4519 11.5235 21.2518 11.7236C21.0575 11.9237 20.7859 12.098 20.4371 12.2467C20.0884 12.401 19.6796 12.5211 19.2108 12.6069C18.742 12.6983 18.2332 12.7441 17.6843 12.7441ZM17.0069 7.97597C17.4699 7.97597 17.9016 7.93309 18.3018 7.84733C18.702 7.75586 19.025 7.60435 19.2708 7.39282C19.5224 7.17557 19.6482 6.87828 19.6482 6.50094C19.6482 6.05501 19.4852 5.72055 19.1594 5.49759C18.8335 5.2689 18.3761 5.15456 17.7872 5.15456C17.4385 5.15456 17.0983 5.21745 16.7667 5.34322C16.4351 5.46328 16.1407 5.63194 15.8834 5.84919C15.6262 6.06644 15.4203 6.31228 15.266 6.5867C15.1116 6.86112 15.0344 7.15556 15.0344 7.47C15.0344 7.63008 15.0973 7.74728 15.2231 7.82161C15.3546 7.89021 15.5633 7.93309 15.8491 7.95024C16.1407 7.96739 16.5266 7.97597 17.0069 7.97597ZM26.8902 15.9428C26.1813 15.9428 25.5724 15.8885 25.0636 15.7799C24.5548 15.677 24.1374 15.5426 23.8116 15.3768C23.4914 15.2167 23.2541 15.0424 23.0998 14.8537C22.9511 14.6707 22.8768 14.4964 22.8768 14.3306C22.8768 14.1819 22.9225 14.0562 23.014 13.9532C23.1112 13.8561 23.237 13.7817 23.3913 13.7303C23.5514 13.6788 23.7315 13.6531 23.9316 13.6531C24.0917 13.6531 24.2775 13.6874 24.489 13.756C24.7063 13.8246 24.9521 13.9018 25.2265 13.9875C25.5067 14.079 25.8211 14.1562 26.1699 14.2191C26.5243 14.282 26.916 14.3048 27.3448 14.2877C27.8078 14.282 28.1995 14.1962 28.5196 14.0304C28.8398 13.8646 29.0999 13.6445 29.3 13.3701C29.5001 13.1014 29.6459 12.807 29.7374 12.4868C29.8289 12.1724 29.8746 11.8551 29.8746 11.5349C29.8746 11.4777 29.8689 11.4291 29.8574 11.3891C29.8517 11.3491 29.8403 11.3176 29.8231 11.2948C29.806 11.2662 29.7803 11.2519 29.746 11.2519C29.6831 11.2519 29.5802 11.3119 29.4372 11.432C29.3 11.5463 29.1113 11.6778 28.8712 11.8265C28.6368 11.9751 28.3424 12.1066 27.9879 12.2209C27.6392 12.341 27.2247 12.401 26.7445 12.401C25.8411 12.401 25.0836 12.2495 24.4719 11.9465C23.8602 11.6435 23.3971 11.209 23.0826 10.643C22.7739 10.0713 22.6195 9.3881 22.6195 8.59342C22.6195 7.87878 22.7567 7.26418 23.0312 6.74964C23.3056 6.22938 23.6801 5.80059 24.1546 5.46328C24.6348 5.12597 25.178 4.87728 25.784 4.7172C26.3957 4.55712 27.0332 4.47708 27.6964 4.47708C28.4167 4.47708 29.0628 4.58856 29.6345 4.81153C30.2062 5.02878 30.6893 5.34894 31.0838 5.77201C31.484 6.19508 31.787 6.70962 31.9928 7.31564C32.2043 7.91594 32.3101 8.59914 32.3101 9.36523C32.3101 10.5087 32.1929 11.4949 31.9585 12.3239C31.7298 13.1528 31.3868 13.8332 30.9294 14.3649C30.4777 14.9023 29.9146 15.2996 29.24 15.5569C28.5654 15.8142 27.7821 15.9428 26.8902 15.9428ZM27.2761 10.9432C27.6706 10.9432 28.0422 10.8831 28.391 10.7631C28.7397 10.6373 29.0456 10.4629 29.3086 10.24C29.5716 10.0113 29.7774 9.74257 29.926 9.43384C30.0804 9.12511 30.1576 8.78494 30.1576 8.41333C30.1576 7.96168 30.0575 7.56148 29.8574 7.21273C29.6631 6.85827 29.3801 6.58098 29.0084 6.38088C28.6368 6.17507 28.1823 6.07216 27.6449 6.07216C27.3247 6.07216 26.9931 6.11218 26.6501 6.19222C26.3071 6.26654 25.9898 6.40089 25.6982 6.59528C25.4066 6.78394 25.1694 7.04122 24.9864 7.36709C24.8092 7.69297 24.7206 8.1046 24.7206 8.602C24.7206 9.0708 24.8235 9.48244 25.0293 9.8369C25.2408 10.1914 25.5381 10.4658 25.9212 10.6602C26.3042 10.8488 26.7559 10.9432 27.2761 10.9432ZM38.4369 12.7441C37.4764 12.7441 36.6446 12.5983 35.9414 12.3067C35.2382 12.0151 34.695 11.5663 34.312 10.9603C33.9289 10.3486 33.7374 9.57105 33.7374 8.62772C33.7374 7.84447 33.866 7.16128 34.1233 6.57813C34.3863 5.98926 34.7465 5.49759 35.2039 5.1031C35.6612 4.70862 36.1901 4.41419 36.7904 4.2198C37.3907 4.0197 38.031 3.91965 38.7113 3.91965C39.1744 3.91965 39.6118 3.96825 40.0234 4.06544C40.4408 4.16263 40.8095 4.31414 41.1297 4.51995C41.4556 4.72005 41.71 4.97733 41.8929 5.29177C42.0759 5.60621 42.1673 5.98068 42.1673 6.41519C42.1673 6.87828 42.0702 7.25561 41.8758 7.54718C41.6814 7.83304 41.4155 8.05887 41.0782 8.22466C40.7409 8.38474 40.3579 8.5048 39.9291 8.58484C39.506 8.65917 39.0629 8.71634 38.5998 8.75636C38.3654 8.79638 38.0882 8.83068 37.768 8.85927C37.4478 8.88214 37.1363 8.90215 36.8332 8.9193C36.536 8.93073 36.3044 8.93645 36.1386 8.93645C35.9671 8.93645 35.8499 8.95932 35.787 9.00505C35.7241 9.05079 35.6927 9.13369 35.6927 9.25375C35.6927 9.39668 35.7327 9.56534 35.8127 9.75972C35.8928 9.94838 36.0071 10.1342 36.1558 10.3171C36.4302 10.6545 36.7475 10.8803 37.1077 10.9946C37.4736 11.1032 37.9224 11.1576 38.4541 11.1576C38.9171 11.1576 39.3402 11.1032 39.7233 10.9946C40.1063 10.8803 40.4493 10.7688 40.7524 10.6602C41.0611 10.5458 41.3384 10.4887 41.5842 10.4887C41.8072 10.4887 41.9815 10.5315 42.1073 10.6173C42.2388 10.6973 42.3046 10.8574 42.3046 11.0975C42.3046 11.3148 42.2045 11.5235 42.0044 11.7236C41.81 11.9237 41.5385 12.098 41.1897 12.2467C40.841 12.401 40.4322 12.5211 39.9634 12.6069C39.4946 12.6983 38.9858 12.7441 38.4369 12.7441ZM37.7594 7.97597C38.2225 7.97597 38.6542 7.93309 39.0544 7.84733C39.4546 7.75586 39.7776 7.60435 40.0234 7.39282C40.275 7.17557 40.4007 6.87828 40.4007 6.50094C40.4007 6.05501 40.2378 5.72055 39.9119 5.49759C39.5861 5.2689 39.1287 5.15456 38.5398 5.15456C38.1911 5.15456 37.8509 5.21745 37.5193 5.34322C37.1877 5.46328 36.8933 5.63194 36.636 5.84919C36.3787 6.06644 36.1729 6.31228 36.0186 6.5867C35.8642 6.86112 35.787 7.15556 35.787 7.47C35.787 7.63008 35.8499 7.74728 35.9757 7.82161C36.1072 7.89021 36.3158 7.93309 36.6017 7.95024C36.8933 7.96739 37.2792 7.97597 37.7594 7.97597ZM44.4269 12.341C44.1582 12.341 43.9467 12.2695 43.7923 12.1266C43.6379 11.9837 43.5265 11.7521 43.4579 11.432C43.435 11.2833 43.4207 11.1147 43.415 10.926C43.4093 10.7374 43.4093 10.523 43.415 10.2828C43.4207 10.0427 43.435 9.77973 43.4579 9.49387C43.5265 8.35616 43.758 7.39282 44.1525 6.60385C44.547 5.80917 45.0958 5.20601 45.799 4.79438C46.5022 4.37702 47.3398 4.16835 48.3117 4.16835C49.2893 4.16835 50.1269 4.36559 50.8244 4.76007C51.5219 5.15456 52.0564 5.76057 52.4281 6.57813C52.7997 7.39568 52.9855 8.43906 52.9855 9.70826C52.9855 9.93695 52.9798 10.1485 52.9683 10.3429C52.9626 10.5372 52.9512 10.7145 52.934 10.8746C52.9169 11.0346 52.8911 11.1804 52.8568 11.3119C52.7711 11.6778 52.6425 11.9408 52.4709 12.1009C52.3051 12.261 52.0879 12.341 51.8192 12.341C51.5448 12.341 51.3361 12.2953 51.1932 12.2038C51.0502 12.1123 50.9473 11.9751 50.8844 11.7922C50.8215 11.6092 50.7787 11.3834 50.7558 11.1147C50.7386 10.6859 50.7215 10.3086 50.7043 9.98269C50.6929 9.65109 50.6729 9.35666 50.6443 9.09939C50.6214 8.8364 50.5929 8.59342 50.5586 8.37045C50.5242 8.14177 50.4814 7.91308 50.4299 7.68439C50.2984 7.10125 50.0783 6.65817 49.7696 6.35516C49.4609 6.05215 49.0006 5.90064 48.3889 5.90064C47.8 5.90064 47.3255 6.06358 46.9653 6.38946C46.6109 6.71534 46.3364 7.16413 46.1421 7.73585C46.0563 7.97597 45.9848 8.22752 45.9277 8.49051C45.8705 8.7535 45.8219 9.02506 45.7819 9.3052C45.7476 9.58535 45.7161 9.87978 45.6875 10.1885C45.6647 10.4972 45.6418 10.8202 45.6189 11.1576C45.5904 11.4777 45.5217 11.7236 45.4131 11.8951C45.3045 12.0666 45.1673 12.1838 45.0015 12.2467C44.8357 12.3096 44.6442 12.341 44.4269 12.341ZM59.089 12.7441C58.1285 12.7441 57.2967 12.5983 56.5934 12.3067C55.8902 12.0151 55.3471 11.5663 54.9641 10.9603C54.581 10.3486 54.3895 9.57105 54.3895 8.62772C54.3895 7.84447 54.5181 7.16128 54.7754 6.57813C55.0384 5.98926 55.3986 5.49759 55.8559 5.1031C56.3133 4.70862 56.8421 4.41419 57.4424 4.2198C58.0427 4.0197 58.6831 3.91965 59.3634 3.91965C59.8265 3.91965 60.2639 3.96825 60.6755 4.06544C61.0928 4.16263 61.4616 4.31414 61.7818 4.51995C62.1076 4.72005 62.362 4.97733 62.545 5.29177C62.7279 5.60621 62.8194 5.98068 62.8194 6.41519C62.8194 6.87828 62.7222 7.25561 62.5278 7.54718C62.3335 7.83304 62.0676 8.05887 61.7303 8.22466C61.393 8.38474 61.0099 8.5048 60.5812 8.58484C60.1581 8.65917 59.715 8.71634 59.2519 8.75636C59.0175 8.79638 58.7402 8.83068 58.4201 8.85927C58.0999 8.88214 57.7883 8.90215 57.4853 8.9193C57.188 8.93073 56.9565 8.93645 56.7907 8.93645C56.6192 8.93645 56.502 8.95932 56.4391 9.00505C56.3762 9.05079 56.3447 9.13369 56.3447 9.25375C56.3447 9.39668 56.3848 9.56534 56.4648 9.75972C56.5448 9.94838 56.6592 10.1342 56.8078 10.3171C57.0823 10.6545 57.3996 10.8803 57.7597 10.9946C58.1256 11.1032 58.5744 11.1576 59.1061 11.1576C59.5692 11.1576 59.9923 11.1032 60.3753 10.9946C60.7584 10.8803 61.1014 10.7688 61.4044 10.6602C61.7131 10.5458 61.9904 10.4887 62.2363 10.4887C62.4592 10.4887 62.6336 10.5315 62.7594 10.6173C62.8909 10.6973 62.9566 10.8574 62.9566 11.0975C62.9566 11.3148 62.8566 11.5235 62.6565 11.7236C62.4621 11.9237 62.1905 12.098 61.8418 12.2467C61.493 12.401 61.0843 12.5211 60.6155 12.6069C60.1467 12.6983 59.6378 12.7441 59.089 12.7441ZM58.4115 7.97597C58.8746 7.97597 59.3062 7.93309 59.7064 7.84733C60.1066 7.75586 60.4297 7.60435 60.6755 7.39282C60.927 7.17557 61.0528 6.87828 61.0528 6.50094C61.0528 6.05501 60.8899 5.72055 60.564 5.49759C60.2381 5.2689 59.7808 5.15456 59.1919 5.15456C58.8431 5.15456 58.503 5.21745 58.1714 5.34322C57.8398 5.46328 57.5454 5.63194 57.2881 5.84919C57.0308 6.06644 56.825 6.31228 56.6706 6.5867C56.5163 6.86112 56.4391 7.15556 56.4391 7.47C56.4391 7.63008 56.502 7.74728 56.6277 7.82161C56.7592 7.89021 56.9679 7.93309 57.2538 7.95024C57.5454 7.96739 57.9313 7.97597 58.4115 7.97597ZM66.0909 12.3753C65.9251 12.3753 65.7765 12.341 65.645 12.2724C65.5135 12.2095 65.3934 12.1209 65.2848 12.0066C65.1819 11.8922 65.0876 11.7579 65.0018 11.6035C64.8989 11.3862 64.8046 11.1347 64.7188 10.8488C64.633 10.563 64.5587 10.2657 64.4958 9.95696C64.4387 9.64252 64.3958 9.33093 64.3672 9.02221C64.3386 8.71348 64.3243 8.42762 64.3243 8.16463C64.3243 7.23274 64.4987 6.44377 64.8474 5.79774C65.1962 5.1517 65.6993 4.66002 66.3568 4.32271C67.0142 3.9854 67.8032 3.81674 68.7237 3.81674C69.1124 3.81674 69.484 3.84533 69.8385 3.9025C70.1987 3.95967 70.5189 4.04543 70.799 4.15977C71.0791 4.2684 71.2992 4.40561 71.4593 4.57141C71.6251 4.73149 71.708 4.9173 71.708 5.12883C71.708 5.30034 71.6709 5.44041 71.5965 5.54904C71.5222 5.65195 71.425 5.72627 71.305 5.77201C71.1906 5.81775 71.0706 5.84061 70.9448 5.84061C70.6818 5.84061 70.3931 5.79774 70.0786 5.71198C69.7699 5.6205 69.3668 5.57477 68.8695 5.57477C68.1205 5.57477 67.5574 5.80631 67.18 6.2694C66.8084 6.73249 66.6226 7.36138 66.6226 8.15606C66.6226 8.44192 66.6369 8.7192 66.6655 8.9879C66.6941 9.25089 66.7284 9.50531 66.7684 9.75114C66.8084 9.99126 66.8484 10.2142 66.8885 10.42C66.9285 10.6259 66.9599 10.8088 66.9828 10.9689C67.0114 11.129 67.0257 11.2605 67.0257 11.3634C67.0257 11.7178 66.9456 11.9751 66.7856 12.1352C66.6312 12.2953 66.3996 12.3753 66.0909 12.3753ZM75.7433 12.9842C75.2802 12.9842 74.84 12.9385 74.4226 12.847C74.011 12.7555 73.6451 12.6097 73.3249 12.4096C73.0048 12.2095 72.7532 11.9494 72.5703 11.6292C72.3873 11.3091 72.2959 10.9174 72.2959 10.4544C72.2959 9.92837 72.4245 9.49673 72.6818 9.15942C72.939 8.82211 73.2878 8.55912 73.728 8.37045C74.1739 8.17607 74.6742 8.04172 75.2288 7.96739C75.7833 7.89307 76.3579 7.85591 76.9525 7.85591C77.1354 7.85591 77.3212 7.86163 77.5099 7.87306C77.6986 7.88449 77.8758 7.89593 78.0416 7.90736C78.2131 7.9188 78.3532 7.92451 78.4618 7.92451C78.6104 7.92451 78.7105 7.90165 78.7619 7.85591C78.8134 7.80445 78.8391 7.7187 78.8391 7.59864C78.8391 7.37567 78.8105 7.17843 78.7534 7.00691C78.7019 6.8354 78.6247 6.68389 78.5218 6.5524C78.4189 6.4209 78.296 6.30942 78.1531 6.21795C77.9244 6.06358 77.6471 5.95496 77.3212 5.89207C77.0011 5.82346 76.6552 5.78916 76.2836 5.78916C75.8433 5.78916 75.4517 5.8349 75.1087 5.92637C74.7714 6.01785 74.4712 6.11218 74.2082 6.20937C73.9453 6.30656 73.7051 6.35516 73.4879 6.35516C73.1906 6.35516 72.9619 6.30656 72.8018 6.20937C72.6417 6.11218 72.5617 5.95496 72.5617 5.73771C72.5617 5.51474 72.656 5.30892 72.8447 5.12025C73.0334 4.93159 73.2935 4.76579 73.6251 4.62286C73.9624 4.47993 74.3512 4.36845 74.7914 4.28841C75.2373 4.20837 75.7119 4.16835 76.215 4.16835C77.2269 4.16835 78.073 4.29698 78.7534 4.55426C79.4394 4.80581 79.954 5.21745 80.297 5.78916C80.64 6.35516 80.8115 7.1184 80.8115 8.07888C80.8115 8.36473 80.7973 8.61343 80.7687 8.82496C80.7401 9.0365 80.7029 9.22231 80.6572 9.38239C80.6172 9.53675 80.5829 9.6711 80.5543 9.78545C80.5257 9.89979 80.5114 10.0056 80.5114 10.1027C80.5114 10.24 80.5543 10.3715 80.64 10.4972C80.7315 10.6173 80.8373 10.7374 80.9573 10.8574C81.0831 10.9775 81.1917 11.1061 81.2832 11.2433C81.3747 11.3748 81.4204 11.5235 81.4204 11.6893C81.4204 11.9351 81.3404 12.1123 81.1803 12.2209C81.0202 12.3296 80.843 12.3839 80.6486 12.3839C80.4714 12.3839 80.3227 12.3239 80.2027 12.2038C80.0883 12.0895 79.9826 11.9751 79.8854 11.8608C79.7939 11.7464 79.6795 11.6893 79.5423 11.6893C79.4623 11.6893 79.3737 11.7121 79.2765 11.7579C79.185 11.8036 79.0707 11.8751 78.9335 11.9723C78.7619 12.098 78.5418 12.2381 78.2731 12.3925C78.0101 12.5525 77.6728 12.6898 77.2612 12.8041C76.8496 12.9242 76.3436 12.9842 75.7433 12.9842ZM75.9748 11.6721C76.3293 11.6721 76.6723 11.6178 77.0039 11.5092C77.3355 11.3948 77.6328 11.2405 77.8958 11.0461C78.1588 10.846 78.3675 10.6144 78.5218 10.3514C78.6762 10.0827 78.7534 9.79402 78.7534 9.4853C78.7534 9.29091 78.6876 9.15084 78.5561 9.06508C78.4304 8.97933 78.2217 8.92501 77.9301 8.90215C77.6385 8.87928 77.2526 8.86784 76.7724 8.86784C76.2979 8.86784 75.8576 8.91644 75.4517 9.01363C75.0458 9.1051 74.7199 9.26233 74.4741 9.4853C74.2283 9.70255 74.1053 9.99984 74.1053 10.3772C74.1053 10.6687 74.1797 10.9089 74.3283 11.0975C74.4769 11.2862 74.6913 11.4291 74.9715 11.5263C75.2516 11.6235 75.5861 11.6721 75.9748 11.6721ZM86.6704 12.3324C86.3616 12.3324 86.0501 12.2867 85.7356 12.1952C85.4269 12.1037 85.161 11.9322 84.9381 11.6807C84.7208 11.4234 84.5922 11.0604 84.5522 10.5916C84.535 10.4258 84.5179 10.2371 84.5007 10.0256C84.4836 9.81403 84.4664 9.5882 84.4493 9.34808C84.4378 9.10225 84.4264 8.85069 84.415 8.59342C84.4092 8.33043 84.4007 8.06458 84.3892 7.79588C84.3835 7.52146 84.3807 7.24989 84.3807 6.98118C84.3749 6.72391 84.3263 6.55526 84.2349 6.47522C84.1491 6.39518 84.0148 6.34658 83.8318 6.32943C83.7232 6.318 83.5831 6.30942 83.4116 6.3037C83.2458 6.29799 83.0743 6.28941 82.8971 6.27798C82.7198 6.26654 82.5626 6.25511 82.4254 6.24367C82.2024 6.2208 82.0338 6.14934 81.9194 6.02928C81.8051 5.9035 81.7479 5.72627 81.7479 5.49759C81.7479 5.34322 81.7794 5.22602 81.8422 5.14598C81.9108 5.06022 82.0052 4.99448 82.1252 4.94874C82.251 4.903 82.3911 4.87156 82.5455 4.85441C82.8485 4.82582 83.0972 4.80009 83.2915 4.77723C83.4916 4.75436 83.6774 4.73435 83.849 4.7172C84.0319 4.69433 84.1605 4.64573 84.2349 4.57141C84.3149 4.49709 84.3664 4.35987 84.3892 4.15977C84.4007 4.03971 84.4092 3.89964 84.415 3.73956C84.4264 3.57948 84.4378 3.42226 84.4493 3.2679C84.4664 3.10782 84.4836 2.97061 84.5007 2.85626C84.5636 2.57612 84.6522 2.37031 84.7666 2.23881C84.8809 2.10732 85.0639 2.04157 85.3154 2.04157C85.5212 2.04157 85.6813 2.07587 85.7956 2.14448C85.9157 2.20737 86.0043 2.30742 86.0615 2.44463C86.1187 2.58184 86.1644 2.75907 86.1987 2.97632C86.2101 3.15356 86.2187 3.31078 86.2244 3.44799C86.2359 3.5852 86.2444 3.71098 86.2502 3.82532C86.2559 3.93395 86.2616 4.034 86.2673 4.12547C86.2787 4.21694 86.2902 4.30842 86.3016 4.39989C86.3188 4.56569 86.3731 4.68575 86.4646 4.76007C86.556 4.82868 86.6904 4.87156 86.8676 4.88871C87.022 4.90586 87.1906 4.92587 87.3736 4.94874C87.5622 4.96589 87.7423 4.98304 87.9139 5.00019C88.0911 5.01163 88.2369 5.02878 88.3512 5.05165C88.5856 5.08023 88.7857 5.14312 88.9515 5.24031C89.1173 5.33751 89.2002 5.49759 89.2002 5.72055C89.2002 5.92637 89.1345 6.08931 89.003 6.20937C88.8715 6.32371 88.6914 6.38946 88.4627 6.40661C88.114 6.41233 87.7909 6.41519 87.4936 6.41519C87.1963 6.40947 86.9648 6.40947 86.799 6.41519C86.6675 6.42662 86.5646 6.46664 86.4903 6.53525C86.4217 6.59814 86.3817 6.76393 86.3702 7.03264C86.3702 7.24989 86.3702 7.47286 86.3702 7.70155C86.3759 7.93023 86.3817 8.15892 86.3874 8.3876C86.3931 8.61629 86.4017 8.84212 86.4131 9.06508C86.4245 9.28234 86.4388 9.48815 86.456 9.68254C86.4731 9.87692 86.4931 10.0542 86.516 10.2142C86.5617 10.5515 86.6446 10.7774 86.7647 10.8917C86.8905 11.0061 87.0563 11.0632 87.2621 11.0632C87.5079 11.0632 87.6995 11.0146 87.8367 10.9174C87.9796 10.8145 88.0997 10.7116 88.1968 10.6087C88.2998 10.5058 88.4141 10.4544 88.5399 10.4544C88.6828 10.4544 88.7857 10.4944 88.8486 10.5744C88.9172 10.6487 88.9515 10.7602 88.9515 10.9089C88.9515 11.0975 88.8829 11.2776 88.7457 11.4491C88.6142 11.6149 88.437 11.7664 88.214 11.9036C87.9967 12.0351 87.7538 12.1381 87.4851 12.2124C87.2164 12.2924 86.9448 12.3324 86.6704 12.3324ZM91.7839 12.3839C91.5152 12.3839 91.3008 12.3296 91.1407 12.2209C90.9864 12.118 90.8777 11.9522 90.8149 11.7236C90.752 11.4892 90.7205 11.1947 90.7205 10.8403C90.7205 10.6459 90.7234 10.4115 90.7291 10.137C90.7405 9.86263 90.7548 9.56534 90.772 9.24517C90.7891 8.9193 90.8091 8.59056 90.832 8.25897C90.8549 7.92737 90.8806 7.61007 90.9092 7.30706C90.9378 6.99834 90.9664 6.72105 90.9949 6.47522C91.0235 6.22938 91.0521 6.03214 91.0807 5.88349C91.195 5.52331 91.3637 5.25461 91.5867 5.07738C91.8154 4.90014 92.1012 4.81153 92.4442 4.81153C92.7701 4.81153 93.0074 4.93445 93.156 5.18028C93.3047 5.42612 93.379 5.78058 93.379 6.24367C93.379 6.41519 93.3733 6.64673 93.3618 6.93831C93.3504 7.22988 93.3333 7.5529 93.3104 7.90736C93.2875 8.26183 93.2618 8.62486 93.2332 8.99648C93.2103 9.36809 93.1789 9.72542 93.1389 10.0684C93.1046 10.4058 93.0703 10.7059 93.036 10.9689C93.0017 11.2262 92.9616 11.4205 92.9159 11.552C92.8016 11.8608 92.6501 12.0752 92.4614 12.1952C92.2784 12.321 92.0526 12.3839 91.7839 12.3839ZM92.3671 3.48229C91.8296 3.48229 91.4609 3.39082 91.2608 3.20787C91.0607 3.02492 90.9606 2.8191 90.9606 2.59042C90.9606 2.29884 91.0664 2.05586 91.2779 1.86148C91.4895 1.66138 91.7496 1.50988 92.0583 1.40697C92.3671 1.30406 92.6758 1.2526 92.9845 1.2526C93.2075 1.2526 93.4133 1.28977 93.602 1.36409C93.7906 1.43841 93.9393 1.55276 94.0479 1.70712C94.1622 1.86148 94.2194 2.06444 94.2194 2.31599C94.2194 2.59042 94.1337 2.81339 93.9621 2.9849C93.7906 3.15641 93.5648 3.28219 93.2847 3.36223C93.0045 3.44227 92.6987 3.48229 92.3671 3.48229ZM100.551 12.7698C100.265 12.7698 99.9479 12.6383 99.5992 12.3753C99.2505 12.1123 98.8931 11.7636 98.5272 11.3291C98.3614 11.1404 98.1699 10.8889 97.9527 10.5744C97.7411 10.2543 97.5182 9.90551 97.2838 9.52817C97.0551 9.15084 96.8292 8.76493 96.6063 8.37045C96.389 7.97025 96.1889 7.59578 96.006 7.24703C95.823 6.89257 95.6744 6.58956 95.56 6.33801C95.4628 6.12647 95.3857 5.93495 95.3285 5.76343C95.277 5.59192 95.2513 5.43756 95.2513 5.30034C95.2513 5.1174 95.297 4.96303 95.3885 4.83726C95.4857 4.70576 95.6115 4.60571 95.7659 4.5371C95.9202 4.46278 96.086 4.42562 96.2632 4.42562C96.532 4.42562 96.7635 4.49709 96.9579 4.64001C97.1523 4.77723 97.3352 4.98876 97.5067 5.27462C97.5696 5.38896 97.6639 5.57763 97.7897 5.84061C97.9212 6.09789 98.0699 6.39804 98.2357 6.74106C98.4072 7.07838 98.5815 7.43284 98.7588 7.80445C98.9417 8.17607 99.1218 8.53911 99.2991 8.89357C99.4763 9.24232 99.6335 9.55104 99.7707 9.81975C99.9194 10.0942 100.057 10.3143 100.182 10.4801C100.314 10.6459 100.42 10.7288 100.5 10.7288C100.591 10.7288 100.7 10.6459 100.826 10.4801C100.951 10.3143 101.083 10.0999 101.22 9.8369C101.557 9.17943 101.897 8.44763 102.241 7.64152C102.589 6.82968 102.949 6.00355 103.321 5.16313C103.493 4.85441 103.664 4.63716 103.836 4.51138C104.007 4.37988 104.227 4.31414 104.496 4.31414C104.77 4.31414 104.99 4.3856 105.156 4.52853C105.322 4.66574 105.405 4.87156 105.405 5.14598C105.405 5.29463 105.382 5.45757 105.336 5.6348C105.296 5.81203 105.236 5.99784 105.156 6.19222C105.065 6.44949 104.942 6.75822 104.788 7.1184C104.633 7.47286 104.459 7.85305 104.264 8.25897C104.076 8.66488 103.878 9.06508 103.673 9.45957C103.467 9.85405 103.261 10.2228 103.055 10.5658C102.855 10.9031 102.669 11.1833 102.498 11.4063C102.166 11.8065 101.832 12.1323 101.494 12.3839C101.163 12.6412 100.848 12.7698 100.551 12.7698ZM111.414 12.7441C110.454 12.7441 109.622 12.5983 108.919 12.3067C108.216 12.0151 107.672 11.5663 107.289 10.9603C106.906 10.3486 106.715 9.57105 106.715 8.62772C106.715 7.84447 106.843 7.16128 107.101 6.57813C107.364 5.98926 107.724 5.49759 108.181 5.1031C108.639 4.70862 109.167 4.41419 109.768 4.2198C110.368 4.0197 111.008 3.91965 111.689 3.91965C112.152 3.91965 112.589 3.96825 113.001 4.06544C113.418 4.16263 113.787 4.31414 114.107 4.51995C114.433 4.72005 114.687 4.97733 114.87 5.29177C115.053 5.60621 115.145 5.98068 115.145 6.41519C115.145 6.87828 115.048 7.25561 114.853 7.54718C114.659 7.83304 114.393 8.05887 114.056 8.22466C113.718 8.38474 113.335 8.5048 112.906 8.58484C112.483 8.65917 112.04 8.71634 111.577 8.75636C111.343 8.79638 111.066 8.83068 110.745 8.85927C110.425 8.88214 110.114 8.90215 109.811 8.9193C109.513 8.93073 109.282 8.93645 109.116 8.93645C108.944 8.93645 108.827 8.95932 108.764 9.00505C108.701 9.05079 108.67 9.13369 108.67 9.25375C108.67 9.39668 108.71 9.56534 108.79 9.75972C108.87 9.94838 108.984 10.1342 109.133 10.3171C109.408 10.6545 109.725 10.8803 110.085 10.9946C110.451 11.1032 110.9 11.1576 111.431 11.1576C111.895 11.1576 112.318 11.1032 112.701 10.9946C113.084 10.8803 113.427 10.7688 113.73 10.6602C114.038 10.5458 114.316 10.4887 114.562 10.4887C114.785 10.4887 114.959 10.5315 115.085 10.6173C115.216 10.6973 115.282 10.8574 115.282 11.0975C115.282 11.3148 115.182 11.5235 114.982 11.7236C114.787 11.9237 114.516 12.098 114.167 12.2467C113.818 12.401 113.41 12.5211 112.941 12.6069C112.472 12.6983 111.963 12.7441 111.414 12.7441ZM110.737 7.97597C111.2 7.97597 111.632 7.93309 112.032 7.84733C112.432 7.75586 112.755 7.60435 113.001 7.39282C113.252 7.17557 113.378 6.87828 113.378 6.50094C113.378 6.05501 113.215 5.72055 112.889 5.49759C112.563 5.2689 112.106 5.15456 111.517 5.15456C111.168 5.15456 110.828 5.21745 110.497 5.34322C110.165 5.46328 109.871 5.63194 109.613 5.84919C109.356 6.06644 109.15 6.31228 108.996 6.5867C108.842 6.86112 108.764 7.15556 108.764 7.47C108.764 7.63008 108.827 7.74728 108.953 7.82161C109.085 7.89021 109.293 7.93309 109.579 7.95024C109.871 7.96739 110.257 7.97597 110.737 7.97597Z" fill="#FDF5EA"/>
<path d="M9.41937 34.4684C8.87594 34.4684 8.32749 34.3879 7.774 34.2268C7.23057 34.0658 6.76262 33.7639 6.37015 33.3211C5.98774 32.8683 5.76131 32.2293 5.69087 31.4041C5.66068 31.1122 5.63049 30.7801 5.6003 30.4078C5.57011 30.0354 5.53992 29.6379 5.50973 29.2153C5.4896 28.7825 5.46947 28.3397 5.44935 27.8869C5.43928 27.424 5.42419 26.956 5.40406 26.483C5.394 26 5.38896 25.522 5.38896 25.049C5.3789 24.5961 5.29336 24.2993 5.13235 24.1584C4.9814 24.0175 4.74491 23.932 4.42288 23.9018C4.23167 23.8816 3.98512 23.8665 3.68321 23.8565C3.39137 23.8464 3.08947 23.8313 2.77751 23.8112C2.46554 23.7911 2.1888 23.7709 1.94727 23.7508C1.5548 23.7106 1.25793 23.5848 1.05666 23.3734C0.855391 23.152 0.754757 22.8401 0.754757 22.4375C0.754757 22.1658 0.810106 21.9595 0.920804 21.8186C1.04156 21.6677 1.20761 21.552 1.41894 21.4715C1.64034 21.3909 1.88689 21.3356 2.1586 21.3054C2.69197 21.2551 3.12973 21.2098 3.47188 21.1695C3.8241 21.1293 4.15116 21.0941 4.45307 21.0639C4.7751 21.0236 5.00152 20.9381 5.13235 20.8073C5.27324 20.6764 5.36381 20.4349 5.40406 20.0827C5.42419 19.8714 5.43928 19.6248 5.44935 19.343C5.46947 19.0613 5.4896 18.7845 5.50973 18.5128C5.53992 18.231 5.57011 17.9895 5.6003 17.7882C5.71099 17.2951 5.86698 16.9328 6.06825 16.7014C6.26951 16.4699 6.59154 16.3542 7.03433 16.3542C7.39662 16.3542 7.67839 16.4146 7.87966 16.5353C8.09099 16.646 8.24698 16.8221 8.34761 17.0637C8.44825 17.3052 8.52875 17.6172 8.58913 17.9996C8.60926 18.3115 8.62436 18.5883 8.63442 18.8298C8.65455 19.0713 8.66964 19.2927 8.67971 19.494C8.68977 19.6852 8.69983 19.8613 8.7099 20.0223C8.73002 20.1833 8.75015 20.3443 8.77028 20.5054C8.80047 20.7972 8.89607 21.0085 9.05708 21.1394C9.2181 21.2601 9.45459 21.3356 9.76655 21.3658C10.0383 21.396 10.3351 21.4312 10.6572 21.4715C10.9893 21.5016 11.3063 21.5318 11.6082 21.562C11.9201 21.5821 12.1767 21.6123 12.378 21.6526C12.7906 21.7029 13.1428 21.8136 13.4347 21.9847C13.7265 22.1558 13.8724 22.4375 13.8724 22.83C13.8724 23.1923 13.7567 23.4791 13.5252 23.6904C13.2938 23.8917 12.9768 24.0074 12.5743 24.0376C11.9604 24.0477 11.3918 24.0527 10.8685 24.0527C10.3452 24.0427 9.93763 24.0427 9.64579 24.0527C9.41434 24.0728 9.23319 24.1433 9.10237 24.2641C8.98161 24.3747 8.91116 24.6666 8.89104 25.1396C8.89104 25.522 8.89104 25.9145 8.89104 26.317C8.9011 26.7195 8.91116 27.1221 8.92123 27.5246C8.93129 27.9271 8.94639 28.3246 8.96651 28.7171C8.98664 29.0995 9.0118 29.4618 9.04199 29.804C9.07218 30.1461 9.1074 30.4581 9.14765 30.7399C9.22816 31.3336 9.37408 31.7311 9.58541 31.9324C9.80681 32.1337 10.0986 32.2343 10.4609 32.2343C10.8937 32.2343 11.2308 32.1487 11.4723 31.9777C11.7239 31.7965 11.9352 31.6154 12.1063 31.4342C12.2874 31.2531 12.4887 31.1625 12.7101 31.1625C12.9617 31.1625 13.1428 31.233 13.2535 31.3739C13.3743 31.5047 13.4347 31.7009 13.4347 31.9626C13.4347 32.2947 13.3139 32.6117 13.0724 32.9136C12.8409 33.2054 12.529 33.4721 12.1365 33.7136C11.7541 33.9451 11.3264 34.1262 10.8534 34.257C10.3804 34.3979 9.90241 34.4684 9.41937 34.4684ZM24.06 34.9514C22.8926 34.9514 21.7655 34.8206 20.6787 34.5589C19.6019 34.2973 18.6358 33.8797 17.7804 33.306C16.9351 32.7324 16.2659 31.9877 15.7728 31.072C15.2797 30.1461 15.0331 29.019 15.0331 27.6906C15.0331 26.2315 15.2696 24.9584 15.7426 23.8716C16.2256 22.7747 16.8898 21.8639 17.7351 21.1394C18.5805 20.4047 19.5566 19.8563 20.6636 19.494C21.7806 19.1216 22.9732 18.9355 24.2411 18.9355C25.3884 18.9355 26.5104 19.0814 27.6074 19.3732C28.7043 19.6651 29.6905 20.123 30.566 20.7469C31.4415 21.3708 32.1359 22.1809 32.6491 23.1772C33.1724 24.1634 33.4341 25.3559 33.4341 26.7547C33.4341 27.8114 33.2177 28.8278 32.785 29.804C32.3623 30.7801 31.7434 31.6556 30.9283 32.4305C30.1232 33.1953 29.142 33.8042 27.9847 34.257C26.8375 34.72 25.5293 34.9514 24.06 34.9514ZM23.9241 31.6154C24.9506 31.6154 25.8211 31.4594 26.5356 31.1474C27.2501 30.8254 27.8288 30.4078 28.2715 29.8945C28.7244 29.3712 29.0515 28.8027 29.2527 28.1888C29.4641 27.5749 29.5697 26.9661 29.5697 26.3623C29.5697 25.5169 29.4037 24.8024 29.0716 24.2188C28.7496 23.625 28.3168 23.147 27.7734 22.7847C27.24 22.4224 26.6413 22.1608 25.9771 21.9998C25.3129 21.8287 24.6336 21.7432 23.9392 21.7432C23.0335 21.7432 22.1781 21.9394 21.3731 22.3319C20.568 22.7143 19.9139 23.298 19.4107 24.0829C18.9176 24.8578 18.671 25.839 18.671 27.0265C18.671 27.9926 18.8673 28.8228 19.2597 29.5172C19.6623 30.2015 20.256 30.7248 21.041 31.0871C21.8259 31.4393 22.787 31.6154 23.9241 31.6154ZM43.5606 35.1326C42.1114 35.1326 40.8736 34.9061 39.8472 34.4533C38.8207 34.0105 37.9854 33.3664 37.3414 32.5211C36.6973 31.6758 36.2243 30.6594 35.9224 29.4719C35.6205 28.2743 35.4696 26.9309 35.4696 25.4415C35.4696 25.0792 35.4796 24.7169 35.4998 24.3546C35.5299 23.9823 35.5702 23.625 35.6205 23.2829C35.6708 22.9407 35.7362 22.6338 35.8168 22.3621C35.9979 21.6677 36.2595 21.1695 36.6017 20.8676C36.9439 20.5557 37.3565 20.3997 37.8395 20.3997C38.2924 20.3997 38.6345 20.4953 38.866 20.6865C39.0974 20.8777 39.2484 21.1192 39.3188 21.4111C39.3993 21.6928 39.4446 21.9746 39.4547 22.2564C39.4547 22.4577 39.4547 22.6891 39.4547 22.9508C39.4547 23.2124 39.4547 23.4841 39.4547 23.7659C39.4547 24.0477 39.4547 24.3244 39.4547 24.5961C39.4647 24.8578 39.4748 25.0993 39.4849 25.3207C39.5352 26.6088 39.6912 27.746 39.9528 28.7322C40.2145 29.7084 40.6422 30.4732 41.2359 31.0267C41.8397 31.5701 42.6599 31.8418 43.6964 31.8418C44.7531 31.8418 45.6034 31.6254 46.2475 31.1927C46.8916 30.7499 47.3847 30.1159 47.7268 29.2907C48.079 28.4555 48.3407 27.4542 48.5118 26.2868C48.5621 25.9849 48.6023 25.678 48.6325 25.366C48.6728 25.044 48.703 24.7219 48.7231 24.3999C48.7533 24.0779 48.7835 23.7558 48.8137 23.4338C48.8539 23.1017 48.8942 22.7696 48.9344 22.4375C49.0451 21.7834 49.2414 21.2752 49.5231 20.9129C49.8049 20.5506 50.2225 20.3695 50.776 20.3695C51.2591 20.3695 51.6163 20.5305 51.8478 20.8525C52.0893 21.1645 52.2554 21.6073 52.3459 22.1809C52.3761 22.5533 52.3962 22.9256 52.4063 23.298C52.4164 23.6602 52.4164 24.0276 52.4063 24.3999C52.4063 24.7723 52.3962 25.1396 52.3761 25.5019C52.3661 25.8641 52.3459 26.2264 52.3157 26.5887C52.1849 28.4404 51.7824 30.0052 51.1081 31.2833C50.4339 32.5513 49.4678 33.5073 48.2099 34.1514C46.962 34.8055 45.4122 35.1326 43.5606 35.1326ZM58.1936 34.5438C57.9018 34.5438 57.6402 34.4835 57.4087 34.3627C57.1772 34.252 56.9659 34.096 56.7747 33.8947C56.5936 33.6935 56.4275 33.457 56.2766 33.1853C56.0954 32.8029 55.9294 32.3601 55.7784 31.8569C55.6275 31.3537 55.4966 30.8304 55.3859 30.287C55.2853 29.7335 55.2098 29.1851 55.1595 28.6416C55.1092 28.0982 55.084 27.595 55.084 27.1321C55.084 25.4918 55.391 24.103 56.0048 22.9659C56.6187 21.8287 57.5043 20.9632 58.6616 20.3695C59.8189 19.7758 61.2076 19.4789 62.8279 19.4789C63.5122 19.4789 64.1663 19.5292 64.7902 19.6298C65.4242 19.7305 65.9878 19.8814 66.4809 20.0827C66.974 20.2739 67.3614 20.5154 67.6432 20.8073C67.935 21.089 68.081 21.4161 68.081 21.7884C68.081 22.0904 68.0155 22.3369 67.8847 22.5281C67.7539 22.7093 67.5828 22.8401 67.3715 22.9206C67.1702 23.0011 66.9589 23.0413 66.7375 23.0413C66.2746 23.0413 65.7664 22.9659 65.2129 22.8149C64.6695 22.6539 63.96 22.5734 63.0845 22.5734C61.7662 22.5734 60.7749 22.981 60.1107 23.7961C59.4566 24.6112 59.1295 25.7182 59.1295 27.117C59.1295 27.6202 59.1547 28.1083 59.205 28.5813C59.2553 29.0442 59.3157 29.492 59.3862 29.9247C59.4566 30.3474 59.527 30.7399 59.5975 31.1021C59.6679 31.4644 59.7233 31.7865 59.7635 32.0682C59.8139 32.35 59.839 32.5815 59.839 32.7626C59.839 33.3865 59.6981 33.8394 59.4164 34.1212C59.1446 34.403 58.7371 34.5438 58.1936 34.5438ZM72.2852 34.5589C71.8122 34.5589 71.4348 34.4633 71.1531 34.2721C70.8813 34.091 70.6901 33.7991 70.5794 33.3966C70.4687 32.984 70.4134 32.4657 70.4134 31.8418C70.4134 31.4997 70.4184 31.0871 70.4285 30.604C70.4486 30.121 70.4738 29.5977 70.504 29.0341C70.5342 28.4605 70.5694 27.8819 70.6096 27.2982C70.6499 26.7145 70.6952 26.156 70.7455 25.6226C70.7958 25.0792 70.8461 24.5911 70.8964 24.1584C70.9468 23.7257 70.9971 23.3785 71.0474 23.1168C71.2487 22.4828 71.5455 22.0098 71.938 21.6979C72.3405 21.3859 72.8437 21.2299 73.4475 21.2299C74.0211 21.2299 74.4388 21.4463 74.7004 21.879C74.9621 22.3117 75.0929 22.9357 75.0929 23.7508C75.0929 24.0527 75.0828 24.4603 75.0627 24.9735C75.0426 25.4868 75.0124 26.0553 74.9721 26.6793C74.9319 27.3032 74.8866 27.9422 74.8363 28.5964C74.796 29.2505 74.7407 29.8794 74.6702 30.4832C74.6098 31.077 74.5495 31.6053 74.4891 32.0682C74.4287 32.5211 74.3583 32.8632 74.2777 33.0947C74.0765 33.6381 73.8098 34.0155 73.4777 34.2268C73.1557 34.4482 72.7582 34.5589 72.2852 34.5589ZM73.3117 18.8902C72.3657 18.8902 71.7166 18.7292 71.3644 18.4071C71.0122 18.0851 70.8361 17.7228 70.8361 17.3203C70.8361 16.8071 71.0222 16.3794 71.3946 16.0372C71.7669 15.685 72.2248 15.4183 72.7682 15.2372C73.3117 15.056 73.8551 14.9654 74.3985 14.9654C74.791 14.9654 75.1533 15.0309 75.4854 15.1617C75.8175 15.2925 76.0791 15.4938 76.2703 15.7655C76.4716 16.0372 76.5722 16.3945 76.5722 16.8372C76.5722 17.3203 76.4213 17.7128 76.1194 18.0147C75.8175 18.3166 75.4199 18.538 74.9268 18.6788C74.4337 18.8197 73.8953 18.8902 73.3117 18.8902ZM85.0757 34.6646C84.4518 34.6646 83.8027 34.6344 83.1285 34.574C82.4542 34.5237 81.8202 34.4432 81.2265 34.3325C80.6327 34.2218 80.1296 34.086 79.717 33.9249C79.3446 33.774 79.0377 33.6029 78.7961 33.4117C78.5647 33.2205 78.449 32.9488 78.449 32.5966C78.449 32.2041 78.5647 31.9072 78.7961 31.706C79.0276 31.4946 79.3647 31.389 79.8075 31.389C80.1195 31.389 80.5069 31.4443 80.9698 31.555C81.4428 31.6556 81.9762 31.7663 82.5699 31.8871C83.1637 31.9978 83.7926 32.0531 84.4568 32.0531C85.1109 32.0531 85.7349 31.9978 86.3286 31.8871C86.9224 31.7663 87.4054 31.5701 87.7778 31.2984C88.1501 31.0267 88.3363 30.6543 88.3363 30.1813C88.3363 29.7486 88.2155 29.3964 87.974 29.1247C87.7425 28.853 87.335 28.6165 86.7513 28.4152C86.1676 28.2139 85.3474 28.0076 84.2908 27.7963C83.1335 27.5649 82.1523 27.263 81.3472 26.8906C80.5522 26.5183 79.9434 26.0604 79.5207 25.5169C79.1081 24.9635 78.9018 24.3043 78.9018 23.5395C78.9018 22.8753 79.088 22.3017 79.4603 21.8186C79.8427 21.3255 80.361 20.923 81.0151 20.611C81.6693 20.289 82.4139 20.0525 83.2492 19.9016C84.0945 19.7405 84.9801 19.66 85.906 19.66C86.4695 19.66 87.0431 19.6953 87.6268 19.7657C88.2205 19.8261 88.769 19.9217 89.2722 20.0525C89.7854 20.1733 90.198 20.3343 90.51 20.5356C90.8219 20.7268 90.9779 20.9582 90.9779 21.2299C90.9779 21.5218 90.9075 21.7583 90.7666 21.9394C90.6257 22.1205 90.4395 22.2514 90.2081 22.3319C89.9867 22.4124 89.7401 22.4526 89.4684 22.4526C89.0357 22.4526 88.5375 22.4023 87.974 22.3017C87.4205 22.201 86.8167 22.1507 86.1626 22.1507C85.589 22.1507 85.0556 22.2111 84.5625 22.3319C84.0694 22.4426 83.6719 22.6237 83.37 22.8753C83.0781 23.1168 82.9322 23.4388 82.9322 23.8414C82.9322 24.4351 83.2542 24.893 83.8983 25.215C84.5524 25.5371 85.5085 25.8289 86.7664 26.0906C87.9337 26.322 88.8998 26.6189 89.6646 26.9812C90.4395 27.3334 91.0232 27.7863 91.4157 28.3397C91.8082 28.8832 92.0044 29.5624 92.0044 30.3776C92.0044 31.1525 91.8182 31.8116 91.4459 32.355C91.0735 32.8985 90.5653 33.3413 89.9213 33.6834C89.2772 34.0155 88.5375 34.2621 87.7023 34.4231C86.867 34.5841 85.9915 34.6646 85.0757 34.6646ZM94.9564 34.4382C94.5942 34.4382 94.2973 34.3426 94.0658 34.1514C93.8344 33.9602 93.6633 33.6834 93.5526 33.3211C93.4419 32.9488 93.3865 32.501 93.3865 31.9777C93.3865 31.5147 93.3966 31.0166 93.4167 30.4832C93.4469 29.9398 93.4922 29.3813 93.5526 28.8077C93.613 28.2341 93.6884 27.6655 93.779 27.1019C93.8696 26.5384 93.9753 25.995 94.096 25.4717C94.2268 24.9383 94.3778 24.4452 94.5489 23.9923C95.042 22.8552 95.6508 21.9847 96.3754 21.3809C97.0999 20.767 97.9704 20.4601 98.9868 20.4601C99.7114 20.4601 100.315 20.6613 100.798 21.0639C101.281 21.4564 101.679 21.9696 101.991 22.6036C102.313 23.2376 102.585 23.9169 102.806 24.6414C102.977 25.1446 103.163 25.5924 103.364 25.9849C103.566 26.3673 103.792 26.5585 104.044 26.5585C104.346 26.5585 104.653 26.3673 104.965 25.9849C105.276 25.6025 105.599 25.1144 105.931 24.5207C106.404 23.6854 106.867 22.9709 107.319 22.3772C107.782 21.7734 108.285 21.3104 108.829 20.9884C109.382 20.6563 110.031 20.4903 110.776 20.4903C111.772 20.4903 112.572 20.7871 113.176 21.3809C113.78 21.9746 114.218 22.7747 114.49 23.781C114.761 24.7773 114.897 25.8893 114.897 27.117C114.897 27.59 114.887 28.0781 114.867 28.5813C114.847 29.0844 114.812 29.5876 114.761 30.0908C114.721 30.5939 114.666 31.082 114.595 31.555C114.525 32.0179 114.444 32.4506 114.354 32.8532C114.183 33.4067 113.971 33.8042 113.72 34.0457C113.468 34.2772 113.136 34.3929 112.723 34.3929C112.351 34.3929 112.049 34.2923 111.818 34.091C111.586 33.8797 111.415 33.5979 111.304 33.2457C111.284 33.0343 111.269 32.7878 111.259 32.506C111.259 32.2142 111.264 31.8972 111.274 31.555C111.284 31.2028 111.294 30.8254 111.304 30.4229C111.325 30.0203 111.335 29.5826 111.335 29.1096C111.345 28.6366 111.345 28.1385 111.335 27.6152C111.315 27.0214 111.254 26.4679 111.154 25.9547C111.053 25.4415 110.892 25.0238 110.67 24.7018C110.449 24.3798 110.157 24.2188 109.795 24.2188C109.443 24.2188 109.106 24.3798 108.784 24.7018C108.472 25.0138 108.165 25.4264 107.863 25.9396C107.571 26.4528 107.274 27.0063 106.972 27.6001C106.499 28.5762 106.036 29.3209 105.583 29.8342C105.131 30.3373 104.557 30.5889 103.863 30.5889C103.178 30.5889 102.65 30.3524 102.278 29.8794C101.915 29.3964 101.623 28.7423 101.402 27.9171C101.231 27.273 101.055 26.6944 100.874 26.1811C100.693 25.6679 100.481 25.2603 100.24 24.9584C100.008 24.6565 99.7164 24.5056 99.3642 24.5056C99.0221 24.5056 98.7101 24.6666 98.4283 24.9886C98.1465 25.3106 97.8899 25.7987 97.6585 26.4528C97.4169 27.1774 97.2257 27.912 97.0849 28.6567C96.944 29.4014 96.8383 30.121 96.7679 30.8153C96.7075 31.5097 96.6672 32.1437 96.6471 32.7173C96.5465 33.3312 96.3703 33.774 96.1188 34.0457C95.8772 34.3074 95.4898 34.4382 94.9564 34.4382Z" fill="#FDF5EA"/>
</svg>
