<svg width="136" height="32" viewBox="0 0 136 32" fill="none" xmlns="http://www.w3.org/2000/svg">
<g clip-path="url(#clip0_173_663)">
<path d="M38.2065 13.5743C38.4604 13.3574 38.5888 12.9552 38.5888 12.3675V2.49918C38.5888 1.92575 38.4604 1.52919 38.2065 1.31236C37.9497 1.09554 37.4961 0.96716 36.8456 0.930071V0.661896H42.2291C43.2647 0.661896 44.1634 0.818807 44.9308 1.13263C45.6983 1.44645 46.286 1.8858 46.694 2.45354C47.1019 3.02127 47.3073 3.68886 47.3073 4.4563C47.3073 5.38921 47.0021 6.17376 46.3887 6.81282C45.7753 7.45188 44.9394 7.87411 43.8781 8.07667L47.3273 12.8667C47.5184 13.1492 47.7866 13.3917 48.1318 13.5942C48.477 13.7997 48.7966 13.9138 49.0904 13.9394V14.2276H45.9294C45.8923 13.9708 45.7639 13.6798 45.5471 13.346L45.4501 13.2119L41.9809 8.26782H40.3319V12.3675C40.3319 12.7897 40.389 13.1092 40.5031 13.3261C40.6172 13.5429 40.7998 13.6969 41.048 13.7854C41.2962 13.8738 41.6328 13.9337 42.0551 13.9566V14.2247H36.8428V13.9566C37.4932 13.9195 37.9469 13.7911 38.2036 13.5743H38.2065ZM44.4915 6.80997C45.1163 6.19659 45.4301 5.41203 45.4301 4.45344C45.4301 3.49486 45.1163 2.69604 44.4915 2.09692C43.8667 1.49781 43.0108 1.19539 41.9238 1.19539H40.3348V7.72861H41.9238C43.0108 7.72861 43.8667 7.42049 44.4915 6.80997Z" fill="black"/>
<path d="M50.7795 13.8539C50.1033 13.4259 49.587 12.8439 49.236 12.1107C48.8851 11.3775 48.7083 10.5502 48.7083 9.62868C48.7083 8.60733 48.8994 7.69439 49.2817 6.88986C49.664 6.08534 50.1975 5.46054 50.8822 5.01263C51.564 4.56472 52.3486 4.34219 53.2302 4.34219C54.009 4.34219 54.668 4.52763 55.2044 4.89852C55.7407 5.2694 56.1316 5.76295 56.3741 6.38489C56.6166 7.00398 56.705 7.69154 56.6423 8.44471H50.1661L50.1861 8.00536H55.0532C55.0789 7.46901 55.0047 6.95833 54.8335 6.47333C54.6623 5.98834 54.4113 5.60034 54.086 5.31504C53.7608 5.0269 53.3671 4.88425 52.9078 4.88425C52.0776 4.88425 51.4471 5.23801 51.0191 5.94839C50.5912 6.65878 50.3772 7.62592 50.3772 8.85268C50.3772 10.1821 50.6939 11.2577 51.3272 12.0822C51.9606 12.9067 52.845 13.3175 53.9805 13.3175C54.5282 13.3175 55.0304 13.1378 55.484 12.7812C55.9376 12.4246 56.2543 11.9624 56.4311 11.4003L56.6793 11.4574C56.5909 12.0594 56.3798 12.5872 56.046 13.0493C55.7122 13.5087 55.3014 13.8681 54.8107 14.122C54.32 14.3788 53.7779 14.5043 53.1902 14.5043C52.2573 14.5043 51.4528 14.2904 50.7766 13.8624L50.7795 13.8539Z" fill="black"/>
<path d="M59.1612 18.002C58.6192 17.8109 58.2055 17.5484 57.9259 17.2175C57.6435 16.8837 57.5037 16.5014 57.5037 16.0677C57.5037 15.5057 57.6691 15.0578 58.0029 14.7269C58.3339 14.3931 58.7561 14.1192 59.2668 13.9024C59.3438 13.8653 59.4123 13.8396 59.4779 13.8253L59.592 13.9594C59.3096 14.1648 59.0785 14.4188 58.893 14.7269C58.7076 15.035 58.6163 15.3659 58.6163 15.7225C58.6163 16.3473 58.8959 16.8495 59.4608 17.226C60.0228 17.6026 60.7446 17.7909 61.6261 17.7909C62.7103 17.7909 63.5804 17.5712 64.2309 17.129C64.8813 16.6897 65.2094 16.0906 65.2094 15.3374C65.2094 14.8895 65.0811 14.5129 64.8271 14.2076C64.5704 13.9024 64.2195 13.697 63.7744 13.5943C63.3265 13.4915 62.8415 13.5001 62.3194 13.6142L60.6704 14.0165C60.097 14.1563 59.5806 14.1734 59.127 14.065C58.6734 13.9566 58.3196 13.7455 58.0628 13.4316C57.8061 13.1178 57.6805 12.7384 57.6805 12.2905C57.6805 11.8426 57.8175 11.4517 58.0914 11.0723C58.3652 10.6957 58.7647 10.4246 59.2896 10.2592L59.4037 10.4703C59.1355 10.5987 58.9387 10.7584 58.8103 10.9496C58.6819 11.1407 58.6192 11.3518 58.6192 11.5829C58.6192 12.0308 58.8017 12.3532 59.1641 12.5501C59.5292 12.7469 59.9772 12.784 60.5164 12.6556L62.3736 12.2334C63.0897 12.0679 63.743 12.0622 64.3364 12.2134C64.9298 12.3675 65.4063 12.6642 65.7629 13.1035C66.1195 13.5429 66.2993 14.1021 66.2993 14.7811C66.2993 15.4601 66.0796 16.0849 65.6374 16.6212C65.198 17.1576 64.5846 17.5684 63.7972 17.8565C63.0098 18.1447 62.1083 18.2873 61.0869 18.2873C60.3452 18.2873 59.7033 18.1903 59.1612 17.9992V18.002ZM59.5349 10.5559C58.9472 10.2934 58.4765 9.91397 58.1256 9.41471C57.7747 8.91544 57.5978 8.33059 57.5978 7.65159C57.5978 7.01254 57.7576 6.44195 58.0771 5.93698C58.3966 5.43201 58.8502 5.04116 59.438 4.75872C60.0257 4.47913 60.6961 4.33649 61.4493 4.33649C62.2024 4.33649 62.8358 4.47628 63.4235 4.75872C64.0112 5.04116 64.4677 5.43201 64.7929 5.93698C65.1181 6.44195 65.2808 7.01254 65.2808 7.65159C65.2808 8.29065 65.1181 8.83841 64.7929 9.33768C64.4677 9.83694 64.0169 10.2278 63.4435 10.5159C62.8672 10.8041 62.2053 10.9467 61.4493 10.9467C60.7589 10.9467 60.1198 10.8155 59.5321 10.553L59.5349 10.5559ZM63.0811 9.84835C63.452 9.409 63.6375 8.82986 63.6375 8.11377C63.6375 7.47471 63.5348 6.90127 63.3322 6.3906C63.1268 5.87992 62.8472 5.48051 62.4877 5.19237C62.1311 4.90422 61.7346 4.76157 61.3009 4.76157C60.6875 4.76157 60.1883 4.9841 59.806 5.43201C59.4237 5.87992 59.2325 6.45907 59.2325 7.17515C59.2325 7.78853 59.3352 8.34771 59.5378 8.85268C59.7432 9.35765 60.0228 9.75991 60.3823 10.0595C60.7389 10.359 61.1497 10.5102 61.609 10.5102C62.2224 10.5102 62.7131 10.2906 63.084 9.84835H63.0811ZM65.0354 5.10678C64.6132 5.04401 64.0568 4.9356 63.3693 4.78154C62.8187 4.66743 62.385 4.5961 62.0655 4.57043L61.4521 4.33934C61.8344 4.33934 62.3651 4.37072 63.0412 4.43349C63.7316 4.47057 64.2451 4.48769 64.5846 4.48199C64.9241 4.47628 65.1895 4.41066 65.3806 4.29084C65.5718 4.17102 65.6688 3.96275 65.6688 3.6689H65.8998L66.091 5.20092C65.8086 5.20092 65.4576 5.16954 65.0383 5.10678H65.0354Z" fill="black"/>
<path d="M68.2878 13.8539C67.6116 13.4259 67.0953 12.8439 66.7443 12.1107C66.3934 11.3775 66.2166 10.5502 66.2166 9.62868C66.2166 8.60733 66.4077 7.69439 66.79 6.88986C67.1723 6.08534 67.7058 5.46054 68.3905 5.01263C69.0723 4.56472 69.8569 4.34219 70.7384 4.34219C71.5173 4.34219 72.1763 4.52763 72.7127 4.89852C73.249 5.2694 73.6399 5.76295 73.8824 6.38489C74.1249 7.00398 74.2133 7.69154 74.1506 8.44471H67.6744L67.6944 8.00536H72.5615C72.5871 7.46901 72.513 6.95833 72.3418 6.47333C72.1706 5.98834 71.9196 5.60034 71.5943 5.31504C71.2691 5.0269 70.8754 4.88425 70.4161 4.88425C69.5859 4.88425 68.9554 5.23801 68.5274 5.94839C68.0995 6.65878 67.8855 7.62592 67.8855 8.85268C67.8855 10.1821 68.2022 11.2577 68.8355 12.0822C69.4689 12.9067 70.3533 13.3175 71.4888 13.3175C72.0365 13.3175 72.5387 13.1378 72.9923 12.7812C73.4459 12.4246 73.7626 11.9624 73.9394 11.4003L74.1876 11.4574C74.0992 12.0594 73.8881 12.5872 73.5543 13.0493C73.2205 13.5087 72.8097 13.8681 72.319 14.122C71.8283 14.3788 71.2862 14.5043 70.6985 14.5043C69.7656 14.5043 68.9611 14.2904 68.2849 13.8624L68.2878 13.8539Z" fill="black"/>
<path d="M83.7679 13.5943C83.9591 13.774 84.3043 13.8938 84.8035 13.9594V14.2276H80.5698V13.9594C81.069 13.8967 81.4142 13.774 81.6054 13.5943C81.7965 13.4145 81.8935 13.1292 81.8935 12.7327V7.65445C81.8935 6.95263 81.7366 6.41342 81.4228 6.03398C81.109 5.65739 80.6582 5.4691 80.0734 5.4691C79.5998 5.4691 79.149 5.60319 78.7211 5.87136C78.2931 6.13954 77.8481 6.5361 77.3888 7.05818V12.7298C77.3888 13.1264 77.4857 13.4145 77.6769 13.5914C77.868 13.7711 78.2132 13.891 78.7125 13.9566V14.2248H74.4788V13.9566C74.978 13.8938 75.3232 13.7711 75.5144 13.5914C75.7055 13.4117 75.8025 13.1264 75.8025 12.7298V6.55892C75.8025 6.05966 75.7055 5.73728 75.5144 5.59178C75.3232 5.44628 74.978 5.41775 74.4788 5.50619V5.23801L77.1234 4.33649H77.3916V6.57889C77.928 5.83713 78.4672 5.27795 79.0092 4.90137C79.5513 4.52478 80.1162 4.33649 80.7039 4.33649C81.5854 4.33649 82.2673 4.62749 82.7551 5.20948C83.2401 5.79148 83.4826 6.57889 83.4826 7.57457V12.7298C83.4826 13.1264 83.5796 13.4145 83.7708 13.5914L83.7679 13.5943Z" fill="black"/>
<path d="M86.7978 13.8539C86.1216 13.4259 85.6053 12.8439 85.2543 12.1107C84.9034 11.3775 84.7266 10.5502 84.7266 9.62868C84.7266 8.60733 84.9177 7.69439 85.3 6.88986C85.6823 6.08534 86.2158 5.46054 86.9005 5.01263C87.5823 4.56472 88.3669 4.34219 89.2485 4.34219C90.0273 4.34219 90.6863 4.52763 91.2227 4.89852C91.759 5.2694 92.1499 5.76295 92.3924 6.38489C92.6349 7.00398 92.7233 7.69154 92.6606 8.44471H86.1844L86.2044 8.00536H91.0715C91.0972 7.46901 91.023 6.95833 90.8518 6.47333C90.6806 5.98834 90.4296 5.60034 90.1043 5.31504C89.7791 5.0269 89.3854 4.88425 88.9261 4.88425C88.0959 4.88425 87.4654 5.23801 87.0374 5.94839C86.6095 6.65878 86.3955 7.62592 86.3955 8.85268C86.3955 10.1821 86.7122 11.2577 87.3456 12.0822C87.9789 12.9067 88.8633 13.3175 89.9988 13.3175C90.5465 13.3175 91.0487 13.1378 91.5023 12.7812C91.9559 12.4246 92.2726 11.9624 92.4494 11.4003L92.6977 11.4574C92.6092 12.0594 92.3981 12.5872 92.0643 13.0493C91.7305 13.5087 91.3197 13.8681 90.829 14.122C90.3383 14.3788 89.7962 14.5043 89.2085 14.5043C88.2756 14.5043 87.4711 14.2904 86.7949 13.8624L86.7978 13.8539Z" fill="black"/>
<path d="M99.4818 4.61607C99.75 4.80152 99.8841 5.05257 99.8841 5.3721C99.8841 5.6146 99.8185 5.81716 99.6815 5.97692C99.5474 6.13669 99.3705 6.21657 99.1537 6.21657C98.9997 6.21657 98.877 6.19089 98.78 6.13954C98.683 6.08819 98.5774 6.01116 98.4633 5.90845C98.3349 5.79434 98.2237 5.7116 98.1267 5.66025C98.0297 5.6089 97.9013 5.58322 97.733 5.58322C97.4134 5.58322 97.111 5.70019 96.8229 5.93698C96.5347 6.17378 96.3094 6.49901 96.1439 6.91554C95.9784 7.33207 95.8957 7.79424 95.8957 8.30492V12.7498C95.8957 13.0436 95.9584 13.2719 96.0868 13.4288C96.2152 13.5885 96.4092 13.7027 96.6717 13.774C96.9341 13.8453 97.3022 13.9052 97.7729 13.9566V14.2248H92.9828V13.9566C93.4678 13.8938 93.8102 13.7711 94.007 13.5914C94.2039 13.4117 94.3037 13.1321 94.3037 12.7469V6.55892C94.3037 6.05966 94.2067 5.73728 94.0156 5.59178C93.8245 5.44628 93.4792 5.41775 92.98 5.50619V5.23801L95.6246 4.33649H95.8928V6.84707C96.0212 6.31072 96.2095 5.85425 96.4577 5.47766C96.7059 5.10107 96.9998 4.81578 97.3393 4.62463C97.6788 4.43349 98.0268 4.33649 98.3834 4.33649C98.8428 4.33649 99.2079 4.43063 99.4761 4.61322L99.4818 4.61607Z" fill="black"/>
<path d="M108.14 14.2076C107.832 14.413 107.538 14.5158 107.259 14.5158C107.016 14.5158 106.777 14.4558 106.54 14.3332C106.303 14.2133 106.115 14.0279 105.975 13.7768C105.835 13.5286 105.764 13.2234 105.764 12.8668V7.69439C105.764 6.8271 105.57 6.13954 105.179 5.63457C104.788 5.1296 104.255 4.87855 103.579 4.87855C103.094 4.87855 102.7 4.9784 102.4 5.17525C102.101 5.37496 101.895 5.62601 101.787 5.93128C101.679 6.23654 101.661 6.53895 101.738 6.8328C101.816 7.17801 101.807 7.44619 101.71 7.63733C101.613 7.82848 101.459 7.95686 101.239 8.01962C100.971 8.09665 100.731 8.05671 100.52 7.90551C100.309 7.75145 100.204 7.48898 100.204 7.12095C100.215 6.69872 100.361 6.27363 100.634 5.84569C100.908 5.41775 101.331 5.06113 101.898 4.77299C102.466 4.48484 103.159 4.34219 103.978 4.34219C105.025 4.34219 105.85 4.65316 106.449 5.27225C107.048 5.89134 107.35 6.73295 107.35 7.79139V12.8696C107.35 13.1007 107.402 13.2861 107.504 13.4259C107.607 13.5657 107.747 13.6371 107.926 13.6371C108.206 13.6371 108.463 13.4259 108.694 13.0037L108.925 13.1007C108.708 13.637 108.446 14.0079 108.14 14.2133V14.2076ZM100.965 13.8139C100.46 13.3489 100.209 12.7498 100.209 12.0223C100.209 11.0523 100.529 10.2934 101.168 9.75136C101.807 9.2093 102.803 8.86695 104.158 8.72715L105.901 8.55598L105.921 9.07236L104.292 9.28347C103.462 9.38618 102.848 9.62583 102.452 10.0024C102.055 10.379 101.858 10.9011 101.858 11.563C101.858 12.0993 102.029 12.5444 102.375 12.8953C102.72 13.2462 103.142 13.4231 103.639 13.4231C104.086 13.4231 104.494 13.2576 104.865 12.9238C105.236 12.5929 105.541 12.1307 105.784 11.543L105.804 12.0223C105.547 12.8268 105.159 13.4431 104.634 13.871C104.109 14.2989 103.51 14.5129 102.834 14.5129C102.092 14.5129 101.47 14.279 100.965 13.8139Z" fill="black"/>
<path d="M113.846 13.6998C113.666 13.9109 113.438 14.0992 113.156 14.2647C112.873 14.4301 112.568 14.5129 112.237 14.5129C111.47 14.5129 110.876 14.2704 110.454 13.7854C110.032 13.3004 109.821 12.6157 109.821 11.7341V5.16096H108.249V4.89279C109.016 4.70164 109.638 4.37926 110.117 3.92564C110.597 3.47203 110.939 2.8672 111.142 2.11403H111.41V4.62461H114.132V5.16096H111.41V11.6942C111.41 12.2933 111.544 12.7697 111.812 13.1206C112.08 13.4716 112.463 13.6427 112.962 13.6285C113.193 13.6171 113.384 13.56 113.535 13.4659C113.686 13.3717 113.843 13.2405 113.995 13.0721L114.072 12.9951L114.226 13.0921C114.149 13.2833 114.02 13.4858 113.843 13.6969L113.846 13.6998Z" fill="black"/>
<path d="M117.806 13.5942C117.997 13.774 118.343 13.8938 118.842 13.9594V14.2276H114.608V13.9594C115.107 13.8967 115.453 13.774 115.644 13.5942C115.835 13.4145 115.932 13.1292 115.932 12.7327V6.56176C115.932 6.0625 115.835 5.74012 115.644 5.59462C115.453 5.44912 115.107 5.42059 114.608 5.50903V5.24086L117.253 4.33933H117.521V12.7327C117.521 13.1292 117.618 13.4174 117.809 13.5942H117.806ZM115.852 2.54769C115.621 2.32516 115.507 2.05413 115.507 1.7346C115.507 1.41507 115.624 1.14404 115.861 0.921516C116.097 0.698987 116.38 0.584869 116.714 0.584869C117.047 0.584869 117.324 0.696134 117.547 0.921516C117.769 1.14404 117.883 1.41793 117.883 1.7346C117.883 2.05128 117.775 2.32516 117.558 2.54769C117.341 2.77022 117.059 2.88433 116.714 2.88433C116.368 2.88433 116.08 2.77307 115.852 2.54769Z" fill="black"/>
<path d="M118.408 4.89566V4.62749H122.642V4.89566C121.595 4.95843 121.224 5.37496 121.529 6.14239L123.906 12.1963L126.359 6.14239C126.667 5.37496 126.302 4.96128 125.267 4.89566V4.62749H128.179V4.89566C127.669 4.95843 127.252 5.37496 126.933 6.14239L123.463 14.5158H123.195L119.783 6.14239C119.464 5.37496 119.004 4.96128 118.402 4.89566H118.408Z" fill="black"/>
<path d="M129.617 13.8539C128.941 13.4259 128.425 12.8439 128.074 12.1107C127.723 11.3775 127.546 10.5502 127.546 9.62868C127.546 8.60733 127.737 7.69439 128.12 6.88986C128.502 6.08534 129.035 5.46054 129.72 5.01263C130.402 4.56472 131.186 4.34219 132.068 4.34219C132.847 4.34219 133.506 4.52763 134.042 4.89852C134.579 5.2694 134.969 5.76295 135.212 6.38489C135.454 7.00398 135.543 7.69154 135.48 8.44471H129.004L129.024 8.00536H133.891C133.917 7.46901 133.843 6.95833 133.671 6.47333C133.5 5.98834 133.249 5.60034 132.924 5.31504C132.599 5.0269 132.205 4.88425 131.746 4.88425C130.915 4.88425 130.285 5.23801 129.857 5.94839C129.429 6.65878 129.215 7.62592 129.215 8.85268C129.215 10.1821 129.532 11.2577 130.165 12.0822C130.798 12.9067 131.683 13.3175 132.818 13.3175C133.366 13.3175 133.868 13.1378 134.322 12.7812C134.775 12.4246 135.092 11.9624 135.269 11.4003L135.517 11.4574C135.429 12.0594 135.218 12.5872 134.884 13.0493C134.55 13.5087 134.139 13.8681 133.649 14.122C133.158 14.3788 132.616 14.5043 132.028 14.5043C131.095 14.5043 130.291 14.2904 129.615 13.8624L129.617 13.8539Z" fill="black"/>
<path d="M40.5743 30.9914C40.8225 30.8887 40.9994 30.7318 41.1021 30.5207C41.2048 30.3096 41.2562 30.0243 41.2562 29.6677V18.4385H39.6671C38.8226 18.4642 38.1665 18.7067 37.6929 19.166C37.2193 19.6253 36.857 20.3785 36.6002 21.4255H36.332L36.9454 17.6112H37.2136C37.2507 17.7139 37.3477 17.7881 37.5017 17.8309C37.6558 17.8765 37.8783 17.8993 38.1722 17.8993H46.0862C46.3801 17.8993 46.5997 17.8765 46.7481 17.8309C46.8936 17.7852 46.9934 17.7139 47.0448 17.6112H47.313L47.9064 21.4255H47.6382C47.3957 20.3785 47.0362 19.6225 46.5655 19.1546C46.0919 18.6896 45.4272 18.4499 44.5713 18.4357H42.9822V29.6648C42.9822 30.0214 43.0364 30.3067 43.1448 30.5178C43.2532 30.729 43.4301 30.8859 43.6726 30.9886C43.9151 31.0913 44.2603 31.1598 44.7082 31.1997V31.4679H39.5359V31.1997C39.9838 31.1626 40.3318 31.0913 40.5801 30.9886L40.5743 30.9914Z" fill="black"/>
<path d="M48.2775 31.1455C47.6071 30.7375 47.0878 30.1641 46.717 29.4309C46.3461 28.6977 46.1606 27.8446 46.1606 26.8718C46.1606 25.8362 46.3546 24.9204 46.7455 24.1216C47.1363 23.3227 47.6784 22.7008 48.3745 22.2529C49.0706 21.805 49.8666 21.5824 50.7596 21.5824C51.6525 21.5824 52.4 21.7879 53.079 22.1958C53.7552 22.6038 54.2801 23.1801 54.651 23.919C55.0219 24.6608 55.2073 25.5024 55.2073 26.4495C55.2073 27.5108 55.0161 28.438 54.6339 29.2369C54.2516 30.0357 53.7066 30.6548 53.0048 31.0941C52.303 31.5335 51.4985 31.756 50.5912 31.756C49.684 31.756 48.9537 31.5506 48.2832 31.1426L48.2775 31.1455ZM52.3287 30.7717C52.711 30.4722 53.0077 30.0499 53.2188 29.5079C53.4299 28.9658 53.5355 28.3496 53.5355 27.6592C53.5355 26.7149 53.3985 25.8162 53.1247 24.966C52.8508 24.1158 52.4713 23.4311 51.9835 22.9062C51.4985 22.3841 50.9422 22.1216 50.3174 22.1216C49.8324 22.1216 49.4016 22.2757 49.025 22.581C48.6484 22.8862 48.3545 23.3085 48.1434 23.8448C47.9323 24.3812 47.8268 25.0003 47.8268 25.7021C47.8268 26.6464 47.9608 27.5422 48.229 28.3838C48.4972 29.2283 48.8766 29.9102 49.3702 30.4351C49.8609 30.96 50.4144 31.2197 51.0277 31.2197C51.5127 31.2197 51.9464 31.0684 52.3315 30.7689L52.3287 30.7717Z" fill="black"/>
<path d="M63.3465 31.5677C63.1154 31.4393 62.9357 31.2596 62.8016 31.0314C62.6675 30.8031 62.599 30.5407 62.599 30.2468V29.5193C62.0256 30.2982 61.475 30.8659 60.95 31.2254C60.4251 31.5848 59.8716 31.7617 59.2839 31.7617C58.4024 31.7617 57.7177 31.4736 57.2327 30.9001C56.7477 30.3238 56.5052 29.5536 56.5052 28.5807V23.8106C56.5052 23.3113 56.4082 22.989 56.217 22.8435C56.0259 22.698 55.6807 22.6694 55.1814 22.7579V22.4897L57.8261 21.5882H58.0942V28.3896C58.0942 29.08 58.2711 29.6049 58.622 29.9701C58.9729 30.3353 59.4551 30.515 60.0685 30.515C60.5278 30.515 60.95 30.4009 61.3323 30.1698C61.7146 29.9387 62.1311 29.5621 62.5791 29.04V23.8106C62.5791 23.3113 62.4821 22.989 62.2909 22.8435C62.0998 22.698 61.7546 22.6694 61.2553 22.7579V22.4897L63.9 21.5882H64.1681V30.1156C64.1681 30.3467 64.2223 30.5321 64.3308 30.6719C64.4392 30.8117 64.5761 30.883 64.7416 30.883C65.0212 30.883 65.2836 30.6719 65.5261 30.2497L65.7572 30.3467C65.5261 30.883 65.2608 31.2539 64.9613 31.4593C64.6617 31.6647 64.3707 31.7674 64.0883 31.7674C63.8058 31.7674 63.5719 31.7047 63.3408 31.5763L63.3465 31.5677Z" fill="black"/>
<path d="M72.4674 21.862C72.7356 22.0475 72.8697 22.2985 72.8697 22.6181C72.8697 22.8606 72.8041 23.0631 72.6671 23.2229C72.533 23.3826 72.3561 23.4625 72.1393 23.4625C71.9853 23.4625 71.8626 23.4368 71.7656 23.3855C71.6686 23.3341 71.563 23.2571 71.4489 23.1544C71.3205 23.0403 71.2093 22.9576 71.1123 22.9062C71.0153 22.8549 70.8869 22.8292 70.7186 22.8292C70.399 22.8292 70.0966 22.9461 69.8085 23.1829C69.5203 23.4197 69.2949 23.745 69.1295 24.1615C68.964 24.578 68.8813 25.0402 68.8813 25.5509V29.9957C68.8813 30.2896 68.944 30.5178 69.0724 30.6747C69.2008 30.8345 69.3948 30.9486 69.6573 31.0199C69.9197 31.0913 70.2878 31.1512 70.7585 31.2025V31.4707H65.9684V31.2025C66.4534 31.1398 66.7958 31.0171 66.9926 30.8374C67.1895 30.6576 67.2893 30.378 67.2893 29.9929V23.8049C67.2893 23.3056 67.1923 22.9832 67.0012 22.8377C66.81 22.6922 66.4648 22.6637 65.9656 22.7521V22.484L68.6102 21.5824H68.8784V24.093C69.0068 23.5567 69.1951 23.1002 69.4433 22.7236C69.6915 22.347 69.9854 22.0617 70.3249 21.8706C70.6644 21.6794 71.0124 21.5824 71.369 21.5824C71.8284 21.5824 72.1935 21.6766 72.4617 21.8592L72.4674 21.862Z" fill="black"/>
<path d="M76.3502 30.8402C76.5414 31.02 76.8866 31.1398 77.3859 31.2054V31.4736H73.1521V31.2054C73.6514 31.1426 73.9966 31.02 74.1877 30.8402C74.3789 30.6605 74.4759 30.3752 74.4759 29.9786V23.8077C74.4759 23.3085 74.3789 22.9861 74.1877 22.8406C73.9966 22.6951 73.6514 22.6666 73.1521 22.755V22.4868L75.7968 21.5853H76.0649V29.9786C76.0649 30.3752 76.1619 30.6633 76.3531 30.8402H76.3502ZM74.396 19.7937C74.1649 19.5711 74.0508 19.3001 74.0508 18.9806C74.0508 18.661 74.1677 18.39 74.4045 18.1675C74.6413 17.945 74.9238 17.8308 75.2576 17.8308C75.5914 17.8308 75.8681 17.9421 76.0906 18.1675C76.3131 18.39 76.4273 18.6639 76.4273 18.9806C76.4273 19.2972 76.3189 19.5711 76.102 19.7937C75.8852 20.0162 75.6028 20.1303 75.2576 20.1303C74.9124 20.1303 74.6242 20.019 74.396 19.7937Z" fill="black"/>
<path d="M80.4357 31.6162C80.1618 31.5335 79.8508 31.4137 79.5056 31.2625C79.2631 31.1483 79.0834 31.0799 78.9693 31.0599C78.8552 31.0399 78.761 31.0827 78.6925 31.1854C78.6212 31.2881 78.5756 31.4793 78.5499 31.7617H78.2817L77.7825 28.5236H78.0506C78.3702 29.3681 78.8323 30.0243 79.44 30.4979C80.0477 30.9715 80.6953 31.2083 81.3857 31.2083C81.9734 31.2083 82.4584 31.0513 82.8407 30.7375C83.223 30.4237 83.417 30.0129 83.417 29.5022C83.417 29.08 83.3057 28.7319 83.0804 28.458C82.8578 28.1841 82.5754 27.9616 82.2359 27.7961C81.8964 27.6307 81.4399 27.4395 80.8665 27.2227C80.2018 26.9802 79.6768 26.752 79.286 26.5437C78.8951 26.3326 78.5642 26.0416 78.2903 25.6707C78.0164 25.2998 77.8795 24.8262 77.8795 24.2528C77.8795 23.7307 78.0107 23.2628 78.2732 22.8549C78.5356 22.4469 78.8951 22.1331 79.3544 21.9163C79.8138 21.6994 80.333 21.591 80.9064 21.591C81.2516 21.591 81.5712 21.6338 81.865 21.7165C82.1589 21.7993 82.4527 21.9105 82.7466 22.0503C83.0033 22.1645 83.1831 22.2329 83.2943 22.2529C83.4027 22.2729 83.4883 22.2358 83.5539 22.1473C83.6167 22.0589 83.6509 21.8735 83.6509 21.591H83.9191L84.3984 24.5609H84.1302C83.7993 23.7935 83.36 23.1972 82.8179 22.7693C82.2758 22.3413 81.6653 22.1274 80.9892 22.1274C80.4642 22.1274 80.0306 22.2757 79.6854 22.5667C79.3402 22.8606 79.169 23.2429 79.169 23.7165C79.169 24.0617 79.2745 24.3555 79.4857 24.598C79.6968 24.8405 79.9564 25.0345 80.2617 25.1829C80.5669 25.3312 80.9949 25.4995 81.5455 25.6907C82.2216 25.9332 82.7722 26.1671 83.1945 26.3897C83.6167 26.6122 83.9733 26.9317 84.2672 27.3482C84.561 27.7648 84.7065 28.2954 84.7065 28.9487C84.7065 29.4737 84.5753 29.9444 84.3128 30.3666C84.0504 30.7889 83.6681 31.1227 83.1631 31.3737C82.6581 31.6219 82.0733 31.7475 81.4085 31.7475C81.0377 31.7475 80.7153 31.7047 80.4414 31.6219L80.4357 31.6162Z" fill="black"/>
<path d="M100.184 30.8402C100.375 31.02 100.72 31.1398 101.219 31.2054V31.4736H96.9855V31.2054C97.4848 31.1426 97.83 31.02 98.0211 30.8402C98.2123 30.6605 98.3093 30.3752 98.3093 29.9786V24.8434C98.3093 24.1929 98.1295 23.6708 97.7729 23.2828C97.4163 22.892 96.937 22.698 96.335 22.698C95.8871 22.698 95.4792 22.8235 95.1083 23.0717C94.7374 23.3199 94.3152 23.7136 93.8444 24.25C93.8558 24.3641 93.8644 24.5381 93.8644 24.7663V29.9786C93.8644 30.3752 93.9585 30.6633 94.1525 30.8402C94.3437 31.02 94.6946 31.1398 95.2053 31.2054V31.4736H90.9516V31.2054C91.4508 31.1426 91.796 31.02 91.9872 30.8402C92.1783 30.6605 92.2753 30.3752 92.2753 29.9786V24.8434C92.2753 24.1929 92.0956 23.6708 91.739 23.2828C91.3823 22.892 90.9088 22.698 90.3211 22.698C89.8731 22.698 89.4709 22.8206 89.1143 23.0631C88.7576 23.3056 88.3354 23.6879 87.8504 24.2129V29.9815C87.8504 30.3781 87.9474 30.6662 88.1386 30.8431C88.3297 31.0228 88.6749 31.1426 89.1742 31.2083V31.4764H84.9404V31.2083C85.4397 31.1455 85.7849 31.0228 85.976 30.8431C86.1672 30.6633 86.2642 30.3781 86.2642 29.9815V23.8106C86.2642 23.3113 86.1672 22.989 85.976 22.8435C85.7849 22.698 85.4397 22.6694 84.9404 22.7579V22.4897L87.5851 21.5882H87.8533V23.7336C88.401 22.9804 88.9345 22.4355 89.4538 22.096C89.9701 21.7565 90.5236 21.5882 91.1113 21.5882C91.8388 21.5882 92.4322 21.785 92.8944 22.1816C93.3566 22.5781 93.6533 23.1345 93.7959 23.8477C94.3694 23.0688 94.92 22.4954 95.4449 22.1331C95.9699 21.7679 96.5319 21.5882 97.131 21.5882C98.0126 21.5882 98.6944 21.8735 99.1823 22.4412C99.6673 23.0089 99.9098 23.7849 99.9098 24.7692V29.9815C99.9098 30.3781 100.007 30.6662 100.198 30.8431L100.184 30.8402Z" fill="black"/>
<path d="M15.657 31.3166C11.3348 31.3166 7.81714 27.799 7.81714 23.4768C7.81714 19.1546 11.3348 15.6369 15.657 15.6369C19.9792 15.6369 23.4969 19.1546 23.4969 23.4768C23.4969 27.799 19.9792 31.3166 15.657 31.3166ZM15.657 16.9407C12.0537 16.9407 9.12378 19.8707 9.12378 23.4739C9.12378 27.0772 12.0537 30.0072 15.657 30.0072C19.2603 30.0072 22.1902 27.0772 22.1902 23.4739C22.1902 19.8707 19.2603 16.9407 15.657 16.9407Z" fill="black"/>
<path d="M15.6569 31.3167C9.11232 31.3167 3.78589 25.9931 3.78589 19.4456C3.78589 12.8981 9.11232 7.57739 15.6569 7.57739C22.2016 7.57739 27.528 12.901 27.528 19.4484C27.528 25.9959 22.2044 31.3195 15.6569 31.3195V31.3167ZM15.6569 8.88404C9.83125 8.88404 5.09253 13.6228 5.09253 19.4484C5.09253 25.2741 9.83125 30.0129 15.6569 30.0129C21.4826 30.0129 26.2214 25.2741 26.2214 19.4484C26.2214 13.6228 21.4826 8.88404 15.6569 8.88404Z" fill="black"/>
<path d="M15.6569 31.3166C7.02392 31.3166 0 24.2927 0 15.6569C0 7.02107 7.02392 0 15.6569 0C24.2899 0 31.3138 7.02392 31.3138 15.6569C31.3138 24.2899 24.2899 31.3138 15.6569 31.3138V31.3166ZM15.6569 1.30664C7.74571 1.30664 1.30664 7.74571 1.30664 15.6569C1.30664 23.5681 7.74571 30.0072 15.6569 30.0072C23.5681 30.0072 30.0072 23.5681 30.0072 15.6569C30.0072 7.74571 23.5709 1.30664 15.6569 1.30664Z" fill="black"/>
</g>
<defs>
<clipPath id="clip0_173_663">
<rect width="135.52" height="31.7589" fill="white"/>
</clipPath>
</defs>
</svg>
