<svg width="107" height="28" viewBox="0 0 107 28" fill="none" xmlns="http://www.w3.org/2000/svg">
<path d="M95.0544 3.64783C92.4678 3.76869 90.0036 5.20105 88.6134 7.63117C87.3099 9.90958 87.2436 12.566 88.2027 14.8084C87.44 12.9157 87.6007 10.8148 88.5343 9.09696C89.0955 8.0632 89.945 7.17344 91.0316 6.54083C92.2969 5.80537 93.6973 5.57907 95.0493 5.6845C95.6028 5.72822 96.0594 5.22934 96.0594 4.66617C96.0594 4.10299 95.613 3.62211 95.0569 3.64783H95.0544Z" fill="#1C1C1C"/>
<path d="M96.5015 4.64143C98.5221 4.92374 100.253 6.12292 101.269 7.80642C101.881 8.8217 102.227 10.0157 102.227 11.29C102.227 12.774 101.719 14.1183 100.948 15.2553C100.633 15.7215 100.836 16.3741 101.321 16.6565C101.806 16.9388 102.44 16.7885 102.697 16.2861C103.893 13.9525 103.901 11.0569 102.502 8.61191C101.19 6.31976 98.9227 4.92892 96.5015 4.64143Z" fill="#1C1C1C"/>
<path d="M88.7871 15.0329C88.6186 15.0407 88.4474 15.0898 88.2945 15.1778C87.8045 15.4599 87.6127 16.0912 87.9186 16.5647C89.3367 18.777 91.8462 20.2234 94.672 20.2234C97.3216 20.2234 99.6704 18.9452 101.143 16.9735C99.8778 18.5959 97.9619 19.5093 95.9864 19.5532C94.7991 19.5791 93.591 19.2816 92.4866 18.645C91.2007 17.905 90.2907 16.7872 89.6944 15.5452C89.5259 15.1959 89.1578 15.0148 88.7845 15.0303L88.7871 15.0329Z" fill="#1C1C1C"/>
<path d="M95.813 0.00258389C91.8019 0.00258389 88.2391 1.94304 86.003 4.93253C88.0536 2.26085 91.1759 0.754478 94.3961 0.682131C96.3231 0.638206 98.2809 1.11105 100.071 2.14975C102.155 3.35639 103.645 5.17024 104.59 7.20113C104.837 7.73082 105.525 7.88068 106.03 7.58871C106.535 7.29673 106.708 6.65078 106.416 6.14435C104.296 2.47272 100.347 0 95.813 0V0.00258389Z" fill="#1C1C1C"/>
<path d="M106.006 7.51471C107.283 10.635 107.026 14.1016 105.485 16.9375C104.562 18.6334 103.178 20.094 101.392 21.1306C99.3137 22.3379 97.0066 22.7282 94.7844 22.5344C94.2063 22.4827 93.7387 23.0074 93.7387 23.5917C93.7387 24.1759 94.2089 24.6438 94.7895 24.6438C99.008 24.6387 103.108 22.4439 105.369 18.5041C107.37 15.0168 107.466 10.9555 106.006 7.51729V7.51471Z" fill="#1C1C1C"/>
<path d="M93.7387 23.5387C90.3967 23.0936 87.5248 21.146 85.8487 18.3981C84.844 16.7541 84.2732 14.8193 84.2732 12.7533C84.2732 10.3502 85.1023 8.16072 86.3859 6.33142C86.719 5.85544 86.4995 5.18392 85.9933 4.89319C85.4871 4.60245 84.8466 4.77484 84.5573 5.27912C82.4421 8.9403 82.2794 13.592 84.5522 17.5131C86.5641 20.9839 90.0326 23.0936 93.7387 23.5387Z" fill="#1C1C1C"/>
<path d="M4.46135 7.94973C4.3469 7.94973 4.24428 7.92605 4.15351 7.87869C4.06274 7.83527 3.97986 7.7741 3.90487 7.69517C3.83383 7.61623 3.76871 7.52349 3.70951 7.41693C3.63847 7.26695 3.57335 7.0933 3.51415 6.89597C3.45495 6.69863 3.40364 6.4934 3.36023 6.28028C3.32076 6.06322 3.29116 5.84812 3.27143 5.635C3.25169 5.42188 3.24183 5.22455 3.24183 5.043C3.24183 4.39969 3.3622 3.85505 3.60295 3.40908C3.8437 2.9631 4.191 2.62369 4.64487 2.39084C5.09874 2.15798 5.64338 2.04155 6.27879 2.04155C6.54717 2.04155 6.8037 2.06129 7.0484 2.10075C7.29704 2.14022 7.51805 2.19942 7.71144 2.27836C7.90482 2.35334 8.05677 2.44806 8.16728 2.56252C8.28173 2.67302 8.33896 2.80129 8.33896 2.94732C8.33896 3.06572 8.3133 3.16241 8.262 3.2374C8.21069 3.30844 8.1436 3.35974 8.06072 3.39132C7.98178 3.42289 7.8989 3.43868 7.81208 3.43868C7.63053 3.43868 7.43122 3.40908 7.21416 3.34988C7.00104 3.28673 6.72279 3.25516 6.37943 3.25516C5.86242 3.25516 5.47367 3.415 5.21319 3.73468C4.95666 4.05436 4.82839 4.48849 4.82839 5.03708C4.82839 5.23441 4.83826 5.42583 4.85799 5.61132C4.87772 5.79287 4.9014 5.9685 4.92903 6.1382C4.95666 6.30396 4.98428 6.45788 5.01191 6.59996C5.03954 6.74204 5.06124 6.86834 5.07703 6.97885C5.09676 7.08935 5.10663 7.18013 5.10663 7.25117C5.10663 7.49586 5.05138 7.67346 4.94087 7.78397C4.83431 7.89447 4.67447 7.94973 4.46135 7.94973ZM12.2078 8.20429C11.5447 8.20429 10.9705 8.10365 10.4851 7.90237C9.99961 7.70109 9.62468 7.39127 9.36025 6.97293C9.09583 6.55063 8.96361 6.01388 8.96361 5.36268C8.96361 4.82199 9.05241 4.35036 9.23001 3.9478C9.41156 3.54129 9.6602 3.20188 9.97593 2.92956C10.2917 2.65724 10.6567 2.45398 11.0711 2.3198C11.4855 2.18166 11.9276 2.1126 12.3972 2.1126C12.7169 2.1126 13.0188 2.14614 13.303 2.21324C13.5911 2.28033 13.8456 2.38492 14.0667 2.527C14.2916 2.66513 14.4672 2.84273 14.5935 3.0598C14.7198 3.27686 14.783 3.53537 14.783 3.83532C14.783 4.155 14.7159 4.41548 14.5817 4.61676C14.4475 4.81409 14.264 4.96999 14.0311 5.08444C13.7983 5.19495 13.5339 5.27783 13.2379 5.33308C12.9458 5.38439 12.6399 5.42386 12.3203 5.45148C12.1584 5.47911 11.967 5.50279 11.746 5.52252C11.525 5.53831 11.3099 5.55212 11.1007 5.56396C10.8955 5.57186 10.7357 5.5758 10.6212 5.5758C10.5028 5.5758 10.4219 5.59159 10.3785 5.62316C10.3351 5.65474 10.3134 5.71196 10.3134 5.79484C10.3134 5.89351 10.341 6.00994 10.3963 6.14412C10.4515 6.27436 10.5304 6.40263 10.6331 6.52892C10.8225 6.76178 11.0415 6.91767 11.2902 6.99661C11.5428 7.07159 11.8526 7.10909 12.2196 7.10909C12.5393 7.10909 12.8314 7.07159 13.0958 6.99661C13.3602 6.91767 13.597 6.84071 13.8062 6.76572C14.0193 6.68679 14.2107 6.64732 14.3804 6.64732C14.5343 6.64732 14.6547 6.67692 14.7415 6.73612C14.8323 6.79138 14.8777 6.90189 14.8777 7.06765C14.8777 7.21762 14.8086 7.36167 14.6705 7.49981C14.5363 7.63794 14.3488 7.75831 14.1081 7.86093C13.8674 7.96749 13.5852 8.05037 13.2615 8.10957C12.9379 8.17271 12.5867 8.20429 12.2078 8.20429ZM11.7401 4.91276C12.0598 4.91276 12.3578 4.88316 12.634 4.82396C12.9103 4.76081 13.1333 4.65623 13.303 4.5102C13.4766 4.36023 13.5635 4.155 13.5635 3.89452C13.5635 3.58668 13.451 3.3558 13.226 3.20188C13.0011 3.04401 12.6853 2.96508 12.2788 2.96508C12.0381 2.96508 11.8032 3.00849 11.5743 3.09532C11.3454 3.1782 11.1422 3.29462 10.9646 3.4446C10.787 3.59457 10.6449 3.76428 10.5383 3.95372C10.4318 4.14316 10.3785 4.34641 10.3785 4.56348C10.3785 4.67399 10.4219 4.75489 10.5087 4.8062C10.5995 4.85356 10.7436 4.88316 10.9409 4.895C11.1422 4.90684 11.4086 4.91276 11.7401 4.91276ZM18.5628 10.4125C18.0734 10.4125 17.6531 10.375 17.3019 10.3C16.9506 10.2289 16.6625 10.1362 16.4375 10.0217C16.2165 9.91122 16.0527 9.79085 15.9462 9.66061C15.8436 9.53432 15.7923 9.41394 15.7923 9.29949C15.7923 9.19688 15.8238 9.11005 15.887 9.03901C15.9541 8.97192 16.0409 8.92061 16.1475 8.88509C16.258 8.84957 16.3823 8.83181 16.5204 8.83181C16.6309 8.83181 16.7592 8.85549 16.9052 8.90285C17.0552 8.95021 17.2249 9.00349 17.4143 9.06269C17.6077 9.12584 17.8248 9.17912 18.0655 9.22253C18.3102 9.26594 18.5806 9.28173 18.8766 9.26989C19.1963 9.26594 19.4666 9.20674 19.6876 9.09229C19.9086 8.97784 20.0882 8.82589 20.2263 8.63645C20.3645 8.45095 20.4651 8.2477 20.5283 8.02669C20.5914 7.80962 20.623 7.59058 20.623 7.36957C20.623 7.3301 20.619 7.29655 20.6111 7.26893C20.6072 7.2413 20.5993 7.21959 20.5875 7.20381C20.5756 7.18407 20.5579 7.17421 20.5342 7.17421C20.4908 7.17421 20.4197 7.21565 20.3211 7.29853C20.2263 7.37746 20.0961 7.46823 19.9303 7.57085C19.7685 7.67346 19.5653 7.76423 19.3206 7.84317C19.0798 7.92605 18.7937 7.96749 18.4622 7.96749C17.8386 7.96749 17.3157 7.8629 16.8934 7.65373C16.4711 7.44455 16.1514 7.14461 15.9343 6.75388C15.7212 6.35922 15.6147 5.88759 15.6147 5.339C15.6147 4.84567 15.7094 4.4214 15.8988 4.0662C16.0883 3.70705 16.3468 3.41105 16.6743 3.1782C17.0059 2.94534 17.3808 2.77366 17.7991 2.66316C18.2214 2.55265 18.6615 2.4974 19.1193 2.4974C19.6166 2.4974 20.0626 2.57436 20.4572 2.72828C20.8519 2.87825 21.1854 3.09926 21.4577 3.39132C21.734 3.68337 21.9431 4.03857 22.0852 4.45692C22.2313 4.87132 22.3043 5.34295 22.3043 5.8718C22.3043 6.66114 22.2234 7.34194 22.0615 7.91421C21.9037 8.48647 21.6669 8.95613 21.3511 9.32317C21.0394 9.69416 20.6506 9.96845 20.1849 10.1461C19.7192 10.3237 19.1785 10.4125 18.5628 10.4125ZM18.8292 6.96109C19.1015 6.96109 19.3581 6.91965 19.5988 6.83676C19.8396 6.74994 20.0507 6.62956 20.2323 6.47564C20.4138 6.31778 20.5559 6.13228 20.6585 5.91916C20.7651 5.70604 20.8183 5.47122 20.8183 5.21468C20.8183 4.90289 20.7493 4.62663 20.6111 4.38588C20.477 4.14119 20.2816 3.94977 20.0251 3.81164C19.7685 3.66956 19.4548 3.59852 19.0838 3.59852C18.8628 3.59852 18.6339 3.62614 18.3971 3.6814C18.1603 3.73271 17.9412 3.82545 17.7399 3.95964C17.5387 4.08988 17.3749 4.26748 17.2486 4.49244C17.1262 4.7174 17.0651 5.00156 17.0651 5.34492C17.0651 5.66855 17.1361 5.95271 17.2782 6.1974C17.4242 6.4421 17.6294 6.63154 17.8939 6.76572C18.1583 6.89597 18.4701 6.96109 18.8292 6.96109ZM26.5337 8.20429C25.8707 8.20429 25.2965 8.10365 24.811 7.90237C24.3256 7.70109 23.9506 7.39127 23.6862 6.97293C23.4218 6.55063 23.2896 6.01388 23.2896 5.36268C23.2896 4.82199 23.3784 4.35036 23.556 3.9478C23.7375 3.54129 23.9862 3.20188 24.3019 2.92956C24.6176 2.65724 24.9827 2.45398 25.3971 2.3198C25.8115 2.18166 26.2535 2.1126 26.7232 2.1126C27.0429 2.1126 27.3448 2.14614 27.6289 2.21324C27.9171 2.28033 28.1716 2.38492 28.3926 2.527C28.6176 2.66513 28.7932 2.84273 28.9195 3.0598C29.0458 3.27686 29.109 3.53537 29.109 3.83532C29.109 4.155 29.0419 4.41548 28.9077 4.61676C28.7735 4.81409 28.59 4.96999 28.3571 5.08444C28.1243 5.19495 27.8598 5.27783 27.5638 5.33308C27.2718 5.38439 26.9659 5.42386 26.6462 5.45148C26.4844 5.47911 26.293 5.50279 26.072 5.52252C25.851 5.53831 25.6359 5.55212 25.4267 5.56396C25.2215 5.57186 25.0616 5.5758 24.9472 5.5758C24.8288 5.5758 24.7479 5.59159 24.7045 5.62316C24.661 5.65474 24.6393 5.71196 24.6393 5.79484C24.6393 5.89351 24.667 6.00994 24.7222 6.14412C24.7775 6.27436 24.8564 6.40263 24.959 6.52892C25.1485 6.76178 25.3675 6.91767 25.6161 6.99661C25.8687 7.07159 26.1785 7.10909 26.5456 7.10909C26.8653 7.10909 27.1573 7.07159 27.4217 6.99661C27.6862 6.91767 27.923 6.84071 28.1321 6.76572C28.3453 6.68679 28.5367 6.64732 28.7064 6.64732C28.8603 6.64732 28.9807 6.67692 29.0675 6.73612C29.1583 6.79138 29.2037 6.90189 29.2037 7.06765C29.2037 7.21762 29.1346 7.36167 28.9965 7.49981C28.8623 7.63794 28.6748 7.75831 28.4341 7.86093C28.1933 7.96749 27.9111 8.05037 27.5875 8.10957C27.2639 8.17271 26.9126 8.20429 26.5337 8.20429ZM26.0661 4.91276C26.3857 4.91276 26.6837 4.88316 26.96 4.82396C27.2363 4.76081 27.4592 4.65623 27.6289 4.5102C27.8026 4.36023 27.8894 4.155 27.8894 3.89452C27.8894 3.58668 27.7769 3.3558 27.552 3.20188C27.327 3.04401 27.0113 2.96508 26.6048 2.96508C26.364 2.96508 26.1292 3.00849 25.9003 3.09532C25.6714 3.1782 25.4681 3.29462 25.2905 3.4446C25.1129 3.59457 24.9709 3.76428 24.8643 3.95372C24.7577 4.14316 24.7045 4.34641 24.7045 4.56348C24.7045 4.67399 24.7479 4.75489 24.8347 4.8062C24.9255 4.85356 25.0695 4.88316 25.2669 4.895C25.4681 4.90684 25.7345 4.91276 26.0661 4.91276ZM30.6688 7.92605C30.4833 7.92605 30.3373 7.87671 30.2307 7.77805C30.1241 7.67938 30.0472 7.51954 29.9998 7.29853C29.984 7.19591 29.9742 7.07949 29.9702 6.94925C29.9663 6.819 29.9663 6.671 29.9702 6.50524C29.9742 6.33948 29.984 6.15794 29.9998 5.9606C30.0472 5.17521 30.207 4.5102 30.4793 3.96556C30.7517 3.41697 31.1305 3.0006 31.616 2.71644C32.1014 2.42833 32.6796 2.28428 33.3505 2.28428C34.0254 2.28428 34.6036 2.42044 35.0851 2.69276C35.5666 2.96508 35.9356 3.38342 36.1922 3.9478C36.4487 4.51217 36.577 5.23244 36.577 6.1086C36.577 6.26647 36.573 6.4125 36.5651 6.54668C36.5612 6.68087 36.5533 6.80322 36.5414 6.91373C36.5296 7.02423 36.5118 7.12487 36.4882 7.21565C36.429 7.46823 36.3402 7.64978 36.2218 7.76029C36.1073 7.87079 35.9573 7.92605 35.7718 7.92605C35.5824 7.92605 35.4383 7.89447 35.3397 7.83133C35.241 7.76818 35.17 7.67346 35.1266 7.54717C35.0831 7.42087 35.0535 7.26498 35.0377 7.07949C35.0259 6.78348 35.0141 6.523 35.0022 6.29804C34.9943 6.06914 34.9805 5.86588 34.9608 5.68828C34.945 5.50674 34.9253 5.339 34.9016 5.18508C34.8779 5.02721 34.8483 4.86935 34.8128 4.71148C34.722 4.30892 34.5701 4.00305 34.3569 3.79388C34.1438 3.5847 33.8261 3.48012 33.4038 3.48012C32.9973 3.48012 32.6697 3.5926 32.4211 3.81756C32.1764 4.04252 31.987 4.35233 31.8528 4.747C31.7936 4.91276 31.7442 5.08641 31.7048 5.26796C31.6653 5.44951 31.6318 5.63698 31.6041 5.83036C31.5805 6.02375 31.5588 6.227 31.539 6.44012C31.5232 6.65324 31.5074 6.87623 31.4917 7.10909C31.4719 7.3301 31.4246 7.49981 31.3496 7.61821C31.2746 7.73661 31.1799 7.81751 31.0654 7.86093C30.951 7.90434 30.8188 7.92605 30.6688 7.92605ZM40.7903 8.20429C40.1273 8.20429 39.5531 8.10365 39.0676 7.90237C38.5822 7.70109 38.2072 7.39127 37.9428 6.97293C37.6784 6.55063 37.5462 6.01388 37.5462 5.36268C37.5462 4.82199 37.635 4.35036 37.8126 3.9478C37.9941 3.54129 38.2428 3.20188 38.5585 2.92956C38.8742 2.65724 39.2393 2.45398 39.6537 2.3198C40.0681 2.18166 40.5101 2.1126 40.9798 2.1126C41.2995 2.1126 41.6014 2.14614 41.8855 2.21324C42.1736 2.28033 42.4282 2.38492 42.6492 2.527C42.8742 2.66513 43.0498 2.84273 43.1761 3.0598C43.3024 3.27686 43.3655 3.53537 43.3655 3.83532C43.3655 4.155 43.2984 4.41548 43.1643 4.61676C43.0301 4.81409 42.8466 4.96999 42.6137 5.08444C42.3808 5.19495 42.1164 5.27783 41.8204 5.33308C41.5284 5.38439 41.2225 5.42386 40.9028 5.45148C40.741 5.47911 40.5496 5.50279 40.3286 5.52252C40.1076 5.53831 39.8925 5.55212 39.6833 5.56396C39.4781 5.57186 39.3182 5.5758 39.2038 5.5758C39.0854 5.5758 39.0045 5.59159 38.9611 5.62316C38.9176 5.65474 38.8959 5.71196 38.8959 5.79484C38.8959 5.89351 38.9236 6.00994 38.9788 6.14412C39.0341 6.27436 39.113 6.40263 39.2156 6.52892C39.4051 6.76178 39.6241 6.91767 39.8727 6.99661C40.1253 7.07159 40.4351 7.10909 40.8022 7.10909C41.1219 7.10909 41.4139 7.07159 41.6783 6.99661C41.9428 6.91767 42.1796 6.84071 42.3887 6.76572C42.6019 6.68679 42.7933 6.64732 42.963 6.64732C43.1169 6.64732 43.2373 6.67692 43.3241 6.73612C43.4149 6.79138 43.4603 6.90189 43.4603 7.06765C43.4603 7.21762 43.3912 7.36167 43.2531 7.49981C43.1189 7.63794 42.9314 7.75831 42.6907 7.86093C42.4499 7.96749 42.1677 8.05037 41.8441 8.10957C41.5205 8.17271 41.1692 8.20429 40.7903 8.20429ZM40.3227 4.91276C40.6423 4.91276 40.9403 4.88316 41.2166 4.82396C41.4928 4.76081 41.7158 4.65623 41.8855 4.5102C42.0592 4.36023 42.146 4.155 42.146 3.89452C42.146 3.58668 42.0335 3.3558 41.8086 3.20188C41.5836 3.04401 41.2679 2.96508 40.8614 2.96508C40.6206 2.96508 40.3858 3.00849 40.1569 3.09532C39.928 3.1782 39.7247 3.29462 39.5471 3.4446C39.3695 3.59457 39.2275 3.76428 39.1209 3.95372C39.0143 4.14316 38.9611 4.34641 38.9611 4.56348C38.9611 4.67399 39.0045 4.75489 39.0913 4.8062C39.1821 4.85356 39.3261 4.88316 39.5235 4.895C39.7247 4.90684 39.9911 4.91276 40.3227 4.91276ZM45.6239 7.94973C45.5095 7.94973 45.4069 7.92605 45.3161 7.87869C45.2253 7.83527 45.1424 7.7741 45.0675 7.69517C44.9964 7.61623 44.9313 7.52349 44.8721 7.41693C44.8011 7.26695 44.7359 7.0933 44.6767 6.89597C44.6175 6.69863 44.5662 6.4934 44.5228 6.28028C44.4833 6.06322 44.4537 5.84812 44.434 5.635C44.4143 5.42188 44.4044 5.22455 44.4044 5.043C44.4044 4.39969 44.5248 3.85505 44.7655 3.40908C45.0063 2.9631 45.3536 2.62369 45.8075 2.39084C46.2613 2.15798 46.806 2.04155 47.4414 2.04155C47.7097 2.04155 47.9663 2.06129 48.211 2.10075C48.4596 2.14022 48.6806 2.19942 48.874 2.27836C49.0674 2.35334 49.2194 2.44806 49.3299 2.56252C49.4443 2.67302 49.5015 2.80129 49.5015 2.94732C49.5015 3.06572 49.4759 3.16241 49.4246 3.2374C49.3733 3.30844 49.3062 3.35974 49.2233 3.39132C49.1444 3.42289 49.0615 3.43868 48.9747 3.43868C48.7931 3.43868 48.5938 3.40908 48.3767 3.34988C48.1636 3.28673 47.8854 3.25516 47.542 3.25516C47.025 3.25516 46.6363 3.415 46.3758 3.73468C46.1192 4.05436 45.991 4.48849 45.991 5.03708C45.991 5.23441 46.0008 5.42583 46.0206 5.61132C46.0403 5.79287 46.064 5.9685 46.0916 6.1382C46.1192 6.30396 46.1469 6.45788 46.1745 6.59996C46.2021 6.74204 46.2238 6.86834 46.2396 6.97885C46.2593 7.08935 46.2692 7.18013 46.2692 7.25117C46.2692 7.49586 46.214 7.67346 46.1035 7.78397C45.9969 7.89447 45.8371 7.94973 45.6239 7.94973ZM52.2872 8.37005C51.9675 8.37005 51.6636 8.33847 51.3755 8.27533C51.0913 8.21218 50.8388 8.11154 50.6177 7.97341C50.3967 7.83527 50.2231 7.6557 50.0968 7.43469C49.9705 7.21367 49.9073 6.94333 49.9073 6.62364C49.9073 6.26055 49.9961 5.96258 50.1737 5.72972C50.3513 5.49687 50.5921 5.31532 50.896 5.18508C51.2038 5.05089 51.5492 4.95815 51.932 4.90684C52.3148 4.85553 52.7115 4.82988 53.1219 4.82988C53.2482 4.82988 53.3765 4.83383 53.5067 4.84172C53.6369 4.84961 53.7593 4.85751 53.8737 4.8654C53.9922 4.87329 54.0888 4.87724 54.1638 4.87724C54.2664 4.87724 54.3355 4.86145 54.371 4.82988C54.4066 4.79436 54.4243 4.73516 54.4243 4.65228C54.4243 4.49836 54.4046 4.3622 54.3651 4.2438C54.3296 4.1254 54.2763 4.02081 54.2053 3.93004C54.1342 3.83927 54.0494 3.76231 53.9507 3.69916C53.7928 3.5926 53.6014 3.51761 53.3765 3.4742C53.1555 3.42684 52.9167 3.40316 52.6601 3.40316C52.3563 3.40316 52.0859 3.43473 51.8491 3.49788C51.6163 3.56102 51.4091 3.62614 51.2275 3.69324C51.046 3.76033 50.8802 3.79388 50.7302 3.79388C50.525 3.79388 50.3671 3.76033 50.2566 3.69324C50.1461 3.62614 50.0909 3.51761 50.0909 3.36764C50.0909 3.21372 50.156 3.07164 50.2862 2.9414C50.4165 2.81116 50.596 2.6967 50.8249 2.59804C51.0578 2.49937 51.3262 2.42241 51.6301 2.36716C51.9379 2.3119 52.2655 2.28428 52.6128 2.28428C53.3113 2.28428 53.8955 2.37308 54.3651 2.55068C54.8387 2.72433 55.1939 3.00849 55.4307 3.40316C55.6675 3.79388 55.7859 4.32076 55.7859 4.9838C55.7859 5.18113 55.776 5.35282 55.7563 5.49884C55.7366 5.64487 55.7109 5.77314 55.6794 5.88364C55.6517 5.9902 55.628 6.08295 55.6083 6.16188C55.5886 6.24082 55.5787 6.31383 55.5787 6.38092C55.5787 6.47564 55.6083 6.56642 55.6675 6.65324C55.7307 6.73612 55.8037 6.819 55.8866 6.90189C55.9734 6.98477 56.0484 7.07357 56.1115 7.16829C56.1747 7.25906 56.2062 7.36167 56.2062 7.47613C56.2062 7.64583 56.151 7.76818 56.0405 7.84317C55.93 7.91815 55.8076 7.95565 55.6734 7.95565C55.5511 7.95565 55.4485 7.91421 55.3656 7.83133C55.2867 7.75239 55.2136 7.67346 55.1466 7.59453C55.0834 7.51559 55.0045 7.47613 54.9098 7.47613C54.8545 7.47613 54.7933 7.49191 54.7262 7.52349C54.6631 7.55506 54.5842 7.60439 54.4894 7.67149C54.371 7.75831 54.2191 7.85501 54.0336 7.96157C53.852 8.07207 53.6192 8.16679 53.335 8.24573C53.0509 8.32861 52.7016 8.37005 52.2872 8.37005ZM52.447 7.46429C52.6917 7.46429 52.9285 7.42679 53.1574 7.35181C53.3863 7.27287 53.5916 7.16631 53.7731 7.03213C53.9547 6.89399 54.0987 6.73415 54.2053 6.5526C54.3118 6.36711 54.3651 6.1678 54.3651 5.95468C54.3651 5.8205 54.3197 5.7238 54.229 5.6646C54.1421 5.6054 53.9981 5.56791 53.7968 5.55212C53.5955 5.53634 53.3291 5.52844 52.9976 5.52844C52.67 5.52844 52.3661 5.56199 52.0859 5.62908C51.8057 5.69223 51.5807 5.80076 51.411 5.95468C51.2413 6.10466 51.1565 6.30988 51.1565 6.57036C51.1565 6.77164 51.2078 6.93741 51.3104 7.06765C51.413 7.19789 51.561 7.29655 51.7544 7.36365C51.9478 7.43074 52.1787 7.46429 52.447 7.46429ZM59.8304 7.92013C59.6173 7.92013 59.4022 7.88855 59.1851 7.82541C58.972 7.76226 58.7885 7.64386 58.6345 7.47021C58.4846 7.29261 58.3958 7.04199 58.3681 6.71836C58.3563 6.60391 58.3445 6.47367 58.3326 6.32764C58.3208 6.18162 58.3089 6.02572 58.2971 5.85996C58.2892 5.69026 58.2813 5.5166 58.2734 5.339C58.2695 5.15745 58.2636 4.97393 58.2557 4.78844C58.2517 4.599 58.2497 4.41153 58.2497 4.22604C58.2458 4.04844 58.2123 3.93201 58.1491 3.87676C58.0899 3.82151 57.9972 3.78796 57.8709 3.77612C57.7959 3.76823 57.6992 3.76231 57.5808 3.75836C57.4663 3.75441 57.3479 3.74849 57.2256 3.7406C57.1032 3.73271 56.9947 3.72481 56.9 3.71692C56.7461 3.70113 56.6296 3.6518 56.5507 3.56892C56.4718 3.48209 56.4323 3.35974 56.4323 3.20188C56.4323 3.09532 56.454 3.01441 56.4974 2.95916C56.5448 2.89996 56.6099 2.85457 56.6928 2.823C56.7796 2.79142 56.8763 2.76972 56.9829 2.75788C57.192 2.73814 57.3637 2.72038 57.4979 2.7046C57.636 2.68881 57.7643 2.675 57.8827 2.66316C58.009 2.64737 58.0978 2.61382 58.1491 2.56252C58.2044 2.51121 58.2399 2.41649 58.2557 2.27836C58.2636 2.19548 58.2695 2.09878 58.2734 1.98827C58.2813 1.87777 58.2892 1.76923 58.2971 1.66267C58.3089 1.55217 58.3208 1.45745 58.3326 1.37851C58.376 1.18513 58.4372 1.04305 58.5161 0.952273C58.5951 0.861499 58.7214 0.816113 58.895 0.816113C59.0371 0.816113 59.1476 0.839793 59.2265 0.887153C59.3094 0.930566 59.3706 0.999633 59.4101 1.09435C59.4495 1.18907 59.4811 1.31142 59.5048 1.46139C59.5127 1.58374 59.5186 1.69227 59.5225 1.78699C59.5304 1.88171 59.5364 1.96854 59.5403 2.04747C59.5443 2.12246 59.5482 2.19153 59.5522 2.25468C59.56 2.31782 59.5679 2.38097 59.5758 2.44412C59.5877 2.55857 59.6252 2.64145 59.6883 2.69276C59.7515 2.74012 59.8442 2.76972 59.9666 2.78156C60.0731 2.7934 60.1895 2.80721 60.3158 2.823C60.4461 2.83484 60.5704 2.84668 60.6888 2.85852C60.8111 2.86641 60.9118 2.87825 60.9907 2.89404C61.1525 2.91377 61.2907 2.95718 61.4051 3.02428C61.5196 3.09137 61.5768 3.20188 61.5768 3.3558C61.5768 3.49788 61.5314 3.61036 61.4406 3.69324C61.3499 3.77217 61.2255 3.81756 61.0677 3.8294C60.8269 3.83335 60.6039 3.83532 60.3987 3.83532C60.1935 3.83137 60.0336 3.83137 59.9192 3.83532C59.8284 3.84321 59.7574 3.87084 59.7061 3.9182C59.6587 3.96161 59.6311 4.07607 59.6232 4.26156C59.6232 4.41153 59.6232 4.56545 59.6232 4.72332C59.6271 4.88119 59.6311 5.03905 59.635 5.19692C59.639 5.35479 59.6449 5.51068 59.6528 5.6646C59.6607 5.81458 59.6706 5.95666 59.6824 6.09084C59.6942 6.22503 59.708 6.34738 59.7238 6.45788C59.7554 6.69074 59.8126 6.84663 59.8955 6.92557C59.9823 7.0045 60.0968 7.04397 60.2389 7.04397C60.4086 7.04397 60.5408 7.01042 60.6355 6.94333C60.7342 6.87228 60.8171 6.80124 60.8842 6.7302C60.9552 6.65916 61.0341 6.62364 61.121 6.62364C61.2196 6.62364 61.2907 6.65127 61.3341 6.70652C61.3814 6.75783 61.4051 6.83479 61.4051 6.93741C61.4051 7.06765 61.3578 7.19197 61.263 7.31037C61.1723 7.42482 61.0499 7.52941 60.896 7.62413C60.746 7.7149 60.5783 7.78594 60.3928 7.83725C60.2073 7.8925 60.0198 7.92013 59.8304 7.92013ZM63.3604 7.95565C63.1749 7.95565 63.0269 7.91815 62.9164 7.84317C62.8098 7.77213 62.7348 7.65767 62.6914 7.49981C62.648 7.33799 62.6263 7.13474 62.6263 6.89004C62.6263 6.75586 62.6283 6.59404 62.6322 6.4046C62.6401 6.21516 62.65 6.00994 62.6618 5.78892C62.6737 5.56396 62.6875 5.33703 62.7033 5.10812C62.719 4.87921 62.7368 4.66017 62.7565 4.451C62.7763 4.23788 62.796 4.04647 62.8157 3.87676C62.8355 3.70705 62.8552 3.57089 62.8749 3.46828C62.9539 3.21964 63.0703 3.03414 63.2242 2.9118C63.3821 2.78945 63.5794 2.72828 63.8162 2.72828C64.0412 2.72828 64.205 2.81313 64.3076 2.98284C64.4102 3.15254 64.4615 3.39724 64.4615 3.71692C64.4615 3.83532 64.4576 3.99516 64.4497 4.19644C64.4418 4.39772 64.4299 4.62071 64.4141 4.8654C64.3984 5.11009 64.3806 5.36071 64.3609 5.61724C64.3451 5.87378 64.3234 6.12044 64.2957 6.35724C64.2721 6.5901 64.2484 6.7973 64.2247 6.97885C64.201 7.15645 64.1734 7.29063 64.1418 7.38141C64.0629 7.59453 63.9583 7.74253 63.8281 7.82541C63.7018 7.91223 63.5459 7.95565 63.3604 7.95565ZM63.7629 1.81067C63.392 1.81067 63.1374 1.74753 62.9993 1.62123C62.8611 1.49494 62.7921 1.35286 62.7921 1.19499C62.7921 0.993713 62.8651 0.825979 63.0111 0.691792C63.1571 0.553659 63.3367 0.449072 63.5498 0.378032C63.7629 0.306992 63.9761 0.271471 64.1892 0.271471C64.3431 0.271471 64.4852 0.297125 64.6154 0.348432C64.7457 0.399739 64.8483 0.478672 64.9233 0.585232C65.0022 0.691792 65.0417 0.831899 65.0417 1.00555C65.0417 1.19499 64.9825 1.34891 64.8641 1.46731C64.7457 1.58571 64.5898 1.67254 64.3964 1.72779C64.203 1.78305 63.9918 1.81067 63.7629 1.81067ZM69.4126 8.22205C69.2152 8.22205 68.9962 8.13127 68.7555 7.94973C68.5147 7.76818 68.268 7.52743 68.0155 7.22749C67.901 7.09725 67.7688 6.92359 67.6188 6.70652C67.4728 6.48551 67.3189 6.24476 67.1571 5.98428C66.9992 5.7238 66.8433 5.4574 66.6894 5.18508C66.5394 4.90881 66.4013 4.65031 66.275 4.40956C66.1487 4.16487 66.0461 3.95569 65.9671 3.78204C65.9 3.63601 65.8468 3.5038 65.8073 3.3854C65.7718 3.267 65.754 3.16044 65.754 3.06572C65.754 2.93942 65.7856 2.83286 65.8487 2.74604C65.9158 2.65526 66.0027 2.5862 66.1092 2.53884C66.2158 2.48753 66.3302 2.46188 66.4526 2.46188C66.6381 2.46188 66.7979 2.51121 66.9321 2.60988C67.0663 2.7046 67.1926 2.85062 67.311 3.04796C67.3544 3.12689 67.4195 3.25713 67.5063 3.43868C67.5971 3.61628 67.6997 3.82348 67.8142 4.06028C67.9326 4.29313 68.0529 4.53783 68.1753 4.79436C68.3016 5.05089 68.4259 5.30151 68.5483 5.5462C68.6706 5.78695 68.7791 6.00007 68.8739 6.18556C68.9765 6.375 69.0712 6.52695 69.158 6.6414C69.2488 6.75586 69.3218 6.81308 69.3771 6.81308C69.4402 6.81308 69.5152 6.75586 69.602 6.6414C69.6888 6.52695 69.7796 6.37895 69.8743 6.1974C70.1072 5.74354 70.342 5.23836 70.5788 4.68188C70.8196 4.12145 71.0682 3.55116 71.3247 2.971C71.4431 2.75788 71.5615 2.6079 71.6799 2.52108C71.7983 2.4303 71.9503 2.38492 72.1358 2.38492C72.3252 2.38492 72.4772 2.43425 72.5916 2.53292C72.7061 2.62764 72.7633 2.76972 72.7633 2.95916C72.7633 3.06177 72.7475 3.17425 72.7159 3.2966C72.6883 3.41894 72.6469 3.54721 72.5916 3.6814C72.5285 3.859 72.4436 4.07212 72.3371 4.32076C72.2305 4.56545 72.1101 4.82791 71.9759 5.10812C71.8457 5.38834 71.7095 5.6646 71.5675 5.93692C71.4254 6.20924 71.2833 6.4638 71.1412 6.7006C71.0031 6.93346 70.8748 7.12685 70.7564 7.28077C70.5275 7.55703 70.2966 7.78199 70.0638 7.95565C69.8349 8.13325 69.6178 8.22205 69.4126 8.22205ZM76.9117 8.20429C76.2486 8.20429 75.6744 8.10365 75.1889 7.90237C74.7035 7.70109 74.3286 7.39127 74.0641 6.97293C73.7997 6.55063 73.6675 6.01388 73.6675 5.36268C73.6675 4.82199 73.7563 4.35036 73.9339 3.9478C74.1154 3.54129 74.3641 3.20188 74.6798 2.92956C74.9955 2.65724 75.3606 2.45398 75.775 2.3198C76.1894 2.18166 76.6314 2.1126 77.1011 2.1126C77.4208 2.1126 77.7227 2.14614 78.0069 2.21324C78.295 2.28033 78.5495 2.38492 78.7705 2.527C78.9955 2.66513 79.1711 2.84273 79.2974 3.0598C79.4237 3.27686 79.4869 3.53537 79.4869 3.83532C79.4869 4.155 79.4198 4.41548 79.2856 4.61676C79.1514 4.81409 78.9679 4.96999 78.735 5.08444C78.5022 5.19495 78.2377 5.27783 77.9417 5.33308C77.6497 5.38439 77.3438 5.42386 77.0241 5.45148C76.8623 5.47911 76.6709 5.50279 76.4499 5.52252C76.2289 5.53831 76.0138 5.55212 75.8046 5.56396C75.5994 5.57186 75.4395 5.5758 75.3251 5.5758C75.2067 5.5758 75.1258 5.59159 75.0824 5.62316C75.039 5.65474 75.0173 5.71196 75.0173 5.79484C75.0173 5.89351 75.0449 6.00994 75.1001 6.14412C75.1554 6.27436 75.2343 6.40263 75.3369 6.52892C75.5264 6.76178 75.7454 6.91767 75.9941 6.99661C76.2466 7.07159 76.5565 7.10909 76.9235 7.10909C77.2432 7.10909 77.5352 7.07159 77.7997 6.99661C78.0641 6.91767 78.3009 6.84071 78.5101 6.76572C78.7232 6.68679 78.9146 6.64732 79.0843 6.64732C79.2382 6.64732 79.3586 6.67692 79.4454 6.73612C79.5362 6.79138 79.5816 6.90189 79.5816 7.06765C79.5816 7.21762 79.5125 7.36167 79.3744 7.49981C79.2402 7.63794 79.0527 7.75831 78.812 7.86093C78.5712 7.96749 78.289 8.05037 77.9654 8.10957C77.6418 8.17271 77.2905 8.20429 76.9117 8.20429ZM76.444 4.91276C76.7637 4.91276 77.0616 4.88316 77.3379 4.82396C77.6142 4.76081 77.8372 4.65623 78.0069 4.5102C78.1805 4.36023 78.2673 4.155 78.2673 3.89452C78.2673 3.58668 78.1549 3.3558 77.9299 3.20188C77.7049 3.04401 77.3892 2.96508 76.9827 2.96508C76.742 2.96508 76.5071 3.00849 76.2782 3.09532C76.0493 3.1782 75.8461 3.29462 75.6685 3.4446C75.4909 3.59457 75.3488 3.76428 75.2422 3.95372C75.1357 4.14316 75.0824 4.34641 75.0824 4.56348C75.0824 4.67399 75.1258 4.75489 75.2126 4.8062C75.3034 4.85356 75.4474 4.88316 75.6448 4.895C75.8461 4.90684 76.1125 4.91276 76.444 4.91276Z" fill="#1C1C1C"/>
<path d="M6.5024 22.9878C6.12727 22.9878 5.74865 22.9322 5.36657 22.8211C4.99143 22.7099 4.66839 22.5015 4.39746 22.1958C4.13347 21.8832 3.97717 21.4421 3.92854 20.8724C3.9077 20.671 3.88686 20.4417 3.86601 20.1847C3.84517 19.9276 3.82433 19.6532 3.80349 19.3614C3.7896 19.0627 3.7757 18.7571 3.76181 18.4444C3.75486 18.1249 3.74444 17.8018 3.73055 17.4753C3.7236 17.1419 3.72013 16.8119 3.72013 16.4854C3.71318 16.1728 3.65413 15.9678 3.54298 15.8706C3.43877 15.7733 3.27552 15.7143 3.05321 15.6934C2.92122 15.6795 2.75102 15.6691 2.54261 15.6622C2.34115 15.6552 2.13274 15.6448 1.91738 15.6309C1.70202 15.617 1.51098 15.6031 1.34425 15.5892C1.07332 15.5614 0.86838 15.4746 0.72944 15.3287C0.5905 15.1759 0.52103 14.9605 0.52103 14.6826C0.52103 14.4951 0.559238 14.3526 0.635655 14.2554C0.719019 14.1512 0.833645 14.0713 0.979532 14.0157C1.13237 13.9601 1.30257 13.9219 1.49014 13.9011C1.85833 13.8664 2.16052 13.8351 2.39672 13.8073C2.63987 13.7795 2.86565 13.7552 3.07406 13.7344C3.29636 13.7066 3.45267 13.6475 3.54298 13.5572C3.64024 13.4669 3.70276 13.3002 3.73055 13.057C3.74444 12.9111 3.75486 12.7409 3.76181 12.5464C3.7757 12.3519 3.7896 12.1609 3.80349 11.9733C3.82433 11.7788 3.84517 11.6121 3.86601 11.4731C3.94243 11.1327 4.05011 10.8826 4.18905 10.7228C4.32799 10.5631 4.5503 10.4832 4.85596 10.4832C5.10606 10.4832 5.30057 10.5248 5.43951 10.6082C5.5854 10.6846 5.69308 10.8062 5.76255 10.9729C5.83202 11.1397 5.88759 11.355 5.92928 11.619C5.94317 11.8344 5.95359 12.0254 5.96054 12.1921C5.97443 12.3589 5.98485 12.5117 5.9918 12.6506C5.99875 12.7826 6.00569 12.9042 6.01264 13.0153C6.02653 13.1265 6.04043 13.2377 6.05432 13.3488C6.07516 13.5503 6.14116 13.6962 6.25231 13.7865C6.36346 13.8698 6.52672 13.9219 6.74208 13.9428C6.92965 13.9636 7.13458 13.9879 7.35689 14.0157C7.58614 14.0366 7.80497 14.0574 8.01338 14.0782C8.22874 14.0921 8.40589 14.113 8.54483 14.1408C8.82965 14.1755 9.0728 14.2519 9.27426 14.37C9.47573 14.4881 9.57646 14.6826 9.57646 14.9536C9.57646 15.2037 9.49657 15.4016 9.33678 15.5475C9.177 15.6865 8.95817 15.7664 8.68029 15.7872C8.25652 15.7942 7.86402 15.7976 7.50277 15.7976C7.14153 15.7907 6.86018 15.7907 6.65871 15.7976C6.49893 15.8115 6.37389 15.8602 6.28357 15.9435C6.20021 16.0199 6.15158 16.2214 6.13769 16.5479C6.13769 16.8119 6.13769 17.0828 6.13769 17.3607C6.14463 17.6386 6.15158 17.9165 6.15853 18.1943C6.16547 18.4722 6.1759 18.7466 6.18979 19.0176C6.20368 19.2816 6.22105 19.5316 6.24189 19.7678C6.26273 20.004 6.28705 20.2194 6.31484 20.4139C6.37041 20.8238 6.47114 21.0982 6.61703 21.2371C6.76986 21.3761 6.97133 21.4455 7.22142 21.4455C7.52014 21.4455 7.75287 21.3865 7.9196 21.2684C8.09327 21.1434 8.23916 21.0183 8.35726 20.8933C8.4823 20.7682 8.62124 20.7057 8.77408 20.7057C8.94775 20.7057 9.0728 20.7543 9.14922 20.8516C9.23258 20.9419 9.27426 21.0774 9.27426 21.258C9.27426 21.4872 9.1909 21.7061 9.02417 21.9145C8.86439 22.1159 8.64903 22.3 8.3781 22.4668C8.11411 22.6265 7.81886 22.7516 7.49235 22.8419C7.16584 22.9392 6.83586 22.9878 6.5024 22.9878ZM16.6092 23.3212C15.8033 23.3212 15.0252 23.2309 14.275 23.0503C13.5316 22.8697 12.8647 22.5814 12.2742 22.1854C11.6907 21.7894 11.2287 21.2753 10.8883 20.6432C10.5479 20.004 10.3777 19.226 10.3777 18.309C10.3777 17.3017 10.541 16.4229 10.8675 15.6726C11.2009 14.9154 11.6594 14.2867 12.243 13.7865C12.8265 13.2793 13.5004 12.9007 14.2645 12.6506C15.0357 12.3936 15.8589 12.2651 16.7342 12.2651C17.5262 12.2651 18.3008 12.3658 19.058 12.5673C19.8152 12.7687 20.496 13.0848 21.1004 13.5155C21.7048 13.9462 22.1841 14.5055 22.5384 15.1932C22.8997 15.874 23.0803 16.6973 23.0803 17.6629C23.0803 18.3923 22.9309 19.094 22.6322 19.7678C22.3404 20.4417 21.9132 21.0461 21.3505 21.581C20.7947 22.109 20.1174 22.5293 19.3185 22.8419C18.5265 23.1615 17.6234 23.3212 16.6092 23.3212ZM16.5154 21.0183C17.224 21.0183 17.8249 20.9106 18.3181 20.6953C18.8114 20.473 19.2108 20.1847 19.5165 19.8304C19.8291 19.4691 20.0549 19.0766 20.1938 18.6528C20.3397 18.2291 20.4127 17.8088 20.4127 17.392C20.4127 16.8084 20.298 16.3152 20.0688 15.9123C19.8465 15.5024 19.5477 15.1724 19.1726 14.9223C18.8044 14.6722 18.3911 14.4916 17.9326 14.3804C17.4741 14.2623 17.0051 14.2033 16.5258 14.2033C15.9006 14.2033 15.3101 14.3388 14.7543 14.6097C14.1986 14.8737 13.747 15.2766 13.3996 15.8185C13.0592 16.3534 12.889 17.0307 12.889 17.8505C12.889 18.5174 13.0245 19.0905 13.2954 19.5699C13.5733 20.0423 13.9832 20.4035 14.5251 20.6536C15.0669 20.8967 15.7304 21.0183 16.5154 21.0183ZM30.0708 23.4463C29.0705 23.4463 28.216 23.29 27.5074 22.9774C26.7988 22.6717 26.2222 22.2271 25.7776 21.6435C25.333 21.06 25.0065 20.3583 24.7981 19.5386C24.5896 18.7119 24.4854 17.7845 24.4854 16.7563C24.4854 16.5062 24.4924 16.2561 24.5063 16.006C24.5271 15.749 24.5549 15.5024 24.5896 15.2662C24.6244 15.03 24.6695 14.8181 24.7251 14.6305C24.8502 14.1512 25.0308 13.8073 25.267 13.5989C25.5032 13.3835 25.788 13.2759 26.1215 13.2759C26.4341 13.2759 26.6703 13.3419 26.8301 13.4739C26.9898 13.6058 27.094 13.7726 27.1427 13.974C27.1983 14.1686 27.2295 14.3631 27.2365 14.5576C27.2365 14.6965 27.2365 14.8563 27.2365 15.0369C27.2365 15.2176 27.2365 15.4051 27.2365 15.5996C27.2365 15.7942 27.2365 15.9852 27.2365 16.1728C27.2434 16.3534 27.2504 16.5201 27.2573 16.673C27.292 17.5622 27.3997 18.3472 27.5803 19.028C27.761 19.7018 28.0562 20.2298 28.4661 20.6119C28.8829 20.987 29.4491 21.1746 30.1646 21.1746C30.8941 21.1746 31.4811 21.0253 31.9257 20.7265C32.3703 20.4209 32.7107 19.9832 32.9469 19.4135C33.19 18.8369 33.3707 18.1457 33.4888 17.3399C33.5235 17.1315 33.5513 16.9196 33.5721 16.7042C33.5999 16.4819 33.6208 16.2596 33.6347 16.0373C33.6555 15.815 33.6763 15.5927 33.6972 15.3704C33.725 15.1411 33.7528 14.9119 33.7805 14.6826C33.857 14.2311 33.9924 13.8803 34.1869 13.6302C34.3815 13.3801 34.6698 13.255 35.0518 13.255C35.3853 13.255 35.6319 13.3662 35.7917 13.5885C35.9584 13.8038 36.0731 14.1095 36.1356 14.5055C36.1564 14.7625 36.1703 15.0196 36.1773 15.2766C36.1842 15.5267 36.1842 15.7803 36.1773 16.0373C36.1773 16.2943 36.1703 16.5479 36.1564 16.798C36.1495 17.0481 36.1356 17.2982 36.1147 17.5483C36.0244 18.8265 35.7465 19.9068 35.2811 20.7891C34.8156 21.6644 34.1487 22.3243 33.2804 22.769C32.4189 23.2205 31.3491 23.4463 30.0708 23.4463ZM40.1724 23.0399C39.9709 23.0399 39.7903 22.9982 39.6305 22.9148C39.4707 22.8384 39.3249 22.7307 39.1929 22.5918C39.0678 22.4529 38.9532 22.2896 38.849 22.102C38.7239 21.8381 38.6093 21.5324 38.5051 21.185C38.4009 20.8377 38.3106 20.4764 38.2342 20.1013C38.1647 19.7192 38.1126 19.3406 38.0779 18.9655C38.0431 18.5903 38.0258 18.243 38.0258 17.9234C38.0258 16.791 38.2376 15.8324 38.6614 15.0473C39.0852 14.2623 39.6965 13.6649 40.4954 13.255C41.2943 12.8451 42.253 12.6402 43.3715 12.6402C43.8439 12.6402 44.2954 12.6749 44.7262 12.7444C45.1638 12.8139 45.5528 12.9181 45.8933 13.057C46.2337 13.189 46.5011 13.3558 46.6956 13.5572C46.8971 13.7517 46.9978 13.9775 46.9978 14.2345C46.9978 14.443 46.9527 14.6132 46.8624 14.7452C46.772 14.8702 46.654 14.9605 46.5081 15.0161C46.3691 15.0717 46.2232 15.0995 46.0704 15.0995C45.7508 15.0995 45.4 15.0473 45.0179 14.9431C44.6428 14.832 44.153 14.7764 43.5486 14.7764C42.6386 14.7764 41.9543 15.0578 41.4958 15.6205C41.0442 16.1832 40.8185 16.9474 40.8185 17.913C40.8185 18.2603 40.8358 18.5973 40.8706 18.9238C40.9053 19.2433 40.947 19.5525 40.9956 19.8512C41.0442 20.143 41.0929 20.4139 41.1415 20.664C41.1901 20.9141 41.2283 21.1364 41.2561 21.3309C41.2909 21.5254 41.3082 21.6852 41.3082 21.8103C41.3082 22.241 41.211 22.5536 41.0165 22.7481C40.8289 22.9426 40.5475 23.0399 40.1724 23.0399ZM49.9001 23.0503C49.5736 23.0503 49.3131 22.9843 49.1186 22.8523C48.931 22.7273 48.799 22.5258 48.7226 22.2479C48.6462 21.9631 48.608 21.6053 48.608 21.1746C48.608 20.9384 48.6114 20.6536 48.6184 20.3201C48.6323 19.9867 48.6496 19.6254 48.6705 19.2364C48.6913 18.8404 48.7156 18.441 48.7434 18.038C48.7712 17.6351 48.8025 17.2496 48.8372 16.8814C48.8719 16.5062 48.9067 16.1693 48.9414 15.8706C48.9761 15.5718 49.0109 15.3322 49.0456 15.1516C49.1846 14.7139 49.3895 14.3874 49.6604 14.172C49.9383 13.9567 50.2857 13.849 50.7025 13.849C51.0985 13.849 51.3868 13.9984 51.5674 14.2971C51.748 14.5958 51.8383 15.0265 51.8383 15.5892C51.8383 15.7976 51.8314 16.079 51.8175 16.4333C51.8036 16.7876 51.7827 17.1801 51.755 17.6108C51.7272 18.0415 51.6959 18.4826 51.6612 18.9342C51.6334 19.3858 51.5952 19.8199 51.5465 20.2368C51.5049 20.6466 51.4632 21.0114 51.4215 21.3309C51.3798 21.6435 51.3312 21.8797 51.2756 22.0395C51.1367 22.4147 50.9526 22.6752 50.7233 22.8211C50.501 22.9739 50.2266 23.0503 49.9001 23.0503ZM50.6087 12.2338C49.9557 12.2338 49.5076 12.1227 49.2644 11.9004C49.0213 11.6781 48.8997 11.428 48.8997 11.1501C48.8997 10.7958 49.0282 10.5005 49.2853 10.2643C49.5423 10.0212 49.8584 9.83709 50.2336 9.71205C50.6087 9.587 50.9838 9.52448 51.359 9.52448C51.6299 9.52448 51.88 9.56963 52.1092 9.65994C52.3385 9.75026 52.5191 9.8892 52.6511 10.0768C52.7901 10.2643 52.8595 10.511 52.8595 10.8166C52.8595 11.1501 52.7553 11.421 52.5469 11.6294C52.3385 11.8378 52.0641 11.9907 51.7237 12.0879C51.3833 12.1852 51.0116 12.2338 50.6087 12.2338ZM58.7297 23.1232C58.299 23.1232 57.8509 23.1024 57.3854 23.0607C56.92 23.026 56.4823 22.9704 56.0725 22.894C55.6626 22.8176 55.3152 22.7238 55.0304 22.6126C54.7734 22.5084 54.5615 22.3903 54.3948 22.2583C54.235 22.1264 54.1551 21.9388 54.1551 21.6956C54.1551 21.4247 54.235 21.2198 54.3948 21.0808C54.5545 20.9349 54.7873 20.862 55.0929 20.862C55.3083 20.862 55.5758 20.9002 55.8953 20.9766C56.2218 21.0461 56.59 21.1225 56.9999 21.2059C57.4098 21.2823 57.844 21.3205 58.3025 21.3205C58.754 21.3205 59.1847 21.2823 59.5946 21.2059C60.0045 21.1225 60.3379 20.987 60.595 20.7995C60.852 20.6119 60.9805 20.3549 60.9805 20.0284C60.9805 19.7296 60.8972 19.4865 60.7304 19.2989C60.5707 19.1114 60.2893 18.9481 59.8864 18.8092C59.4834 18.6702 58.9173 18.5278 58.1878 18.3819C57.3889 18.2221 56.7116 18.0137 56.1558 17.7567C55.607 17.4996 55.1867 17.1836 54.8949 16.8084C54.6101 16.4263 54.4677 15.9713 54.4677 15.4433C54.4677 14.9848 54.5962 14.5888 54.8533 14.2554C55.1172 13.915 55.475 13.6371 55.9266 13.4218C56.3781 13.1994 56.8922 13.0362 57.4688 12.932C58.0524 12.8208 58.6637 12.7653 59.3028 12.7653C59.6919 12.7653 60.0878 12.7896 60.4908 12.8382C60.9006 12.8799 61.2792 12.9459 61.6266 13.0362C61.9809 13.1196 62.2657 13.2307 62.4811 13.3696C62.6964 13.5016 62.8041 13.6614 62.8041 13.849C62.8041 14.0505 62.7555 14.2137 62.6582 14.3388C62.561 14.4638 62.4325 14.5541 62.2727 14.6097C62.1198 14.6653 61.9496 14.6931 61.7621 14.6931C61.4633 14.6931 61.1195 14.6583 60.7304 14.5888C60.3483 14.5194 59.9315 14.4846 59.48 14.4846C59.084 14.4846 58.7158 14.5263 58.3754 14.6097C58.035 14.6861 57.7606 14.8112 57.5522 14.9848C57.3507 15.1516 57.25 15.3739 57.25 15.6517C57.25 16.0616 57.4723 16.3777 57.9169 16.6C58.3685 16.8223 59.0284 17.0238 59.8968 17.2044C60.7026 17.3642 61.3696 17.5691 61.8975 17.8192C62.4325 18.0624 62.8354 18.375 63.1063 18.7571C63.3772 19.1322 63.5127 19.6011 63.5127 20.1638C63.5127 20.6987 63.3842 21.1538 63.1272 21.5289C62.8701 21.904 62.5193 22.2097 62.0747 22.4459C61.6301 22.6752 61.1195 22.8454 60.5429 22.9565C59.9663 23.0677 59.3619 23.1232 58.7297 23.1232ZM65.5506 22.9669C65.3005 22.9669 65.0955 22.9009 64.9358 22.769C64.776 22.637 64.6579 22.4459 64.5815 22.1958C64.505 21.9388 64.4668 21.6296 64.4668 21.2684C64.4668 20.9488 64.4738 20.605 64.4877 20.2368C64.5085 19.8616 64.5398 19.4761 64.5815 19.0801C64.6231 18.6841 64.6753 18.2916 64.7378 17.9026C64.8003 17.5135 64.8732 17.1384 64.9566 16.7772C65.0469 16.409 65.1511 16.0686 65.2692 15.7559C65.6096 14.9709 66.0299 14.37 66.5301 13.9532C67.0303 13.5294 67.6312 13.3175 68.3329 13.3175C68.833 13.3175 69.2499 13.4565 69.5833 13.7344C69.9168 14.0053 70.1912 14.3596 70.4065 14.7973C70.6288 15.2349 70.8164 15.7038 70.9692 16.204C71.0873 16.5514 71.2159 16.8605 71.3548 17.1315C71.4937 17.3954 71.65 17.5274 71.8237 17.5274C72.0321 17.5274 72.244 17.3954 72.4594 17.1315C72.6747 16.8675 72.897 16.5305 73.1263 16.1207C73.4528 15.5441 73.7724 15.0508 74.085 14.641C74.4045 14.2241 74.7519 13.9046 75.127 13.6823C75.5091 13.453 75.9572 13.3384 76.4713 13.3384C77.159 13.3384 77.7113 13.5433 78.1281 13.9532C78.545 14.3631 78.8472 14.9154 79.0347 15.6101C79.2223 16.2978 79.3161 17.0655 79.3161 17.913C79.3161 18.2395 79.3091 18.5764 79.2952 18.9238C79.2813 19.2711 79.257 19.6185 79.2223 19.9658C79.1945 20.3132 79.1563 20.6501 79.1077 20.9766C79.059 21.2962 79.0035 21.5949 78.9409 21.8728C78.8228 22.2549 78.6769 22.5293 78.5033 22.696C78.3296 22.8558 78.1003 22.9357 77.8155 22.9357C77.5585 22.9357 77.3501 22.8662 77.1903 22.7273C77.0305 22.5814 76.9124 22.3869 76.836 22.1437C76.8221 21.9978 76.8117 21.8276 76.8047 21.6331C76.8047 21.4317 76.8082 21.2128 76.8152 20.9766C76.8221 20.7335 76.829 20.473 76.836 20.1951C76.8499 19.9172 76.8568 19.615 76.8568 19.2885C76.8638 18.962 76.8638 18.6181 76.8568 18.2569C76.8429 17.847 76.8013 17.4649 76.7318 17.1106C76.6623 16.7563 76.5512 16.468 76.3983 16.2457C76.2455 16.0234 76.044 15.9123 75.7939 15.9123C75.5508 15.9123 75.3181 16.0234 75.0958 16.2457C74.8804 16.4611 74.6685 16.7459 74.4601 17.1002C74.2587 17.4545 74.0537 17.8366 73.8453 18.2464C73.5188 18.9203 73.1992 19.4344 72.8866 19.7887C72.574 20.136 72.178 20.3097 71.6987 20.3097C71.2263 20.3097 70.8616 20.1465 70.6045 19.8199C70.3544 19.4865 70.153 19.0349 70.0001 18.4653C69.882 18.0207 69.7605 17.6212 69.6354 17.2669C69.5104 16.9126 69.3645 16.6313 69.1978 16.4229C69.038 16.2144 68.8365 16.1102 68.5934 16.1102C68.3572 16.1102 68.1418 16.2214 67.9473 16.4437C67.7528 16.666 67.5756 17.0029 67.4158 17.4545C67.2491 17.9547 67.1171 18.4618 67.0199 18.9759C66.9226 19.49 66.8497 19.9867 66.801 20.466C66.7594 20.9454 66.7316 21.383 66.7177 21.779C66.6482 22.2028 66.5266 22.5084 66.353 22.696C66.1862 22.8766 65.9188 22.9669 65.5506 22.9669Z" fill="#1C1C1C"/>
</svg>
